<?xml version="1.0" encoding="UTF-8" standalone="no"?>
<!-- Created with Inkscape (http://www.inkscape.org/) -->

<svg
   xmlns:dc="http://purl.org/dc/elements/1.1/"
   xmlns:cc="http://creativecommons.org/ns#"
   xmlns:rdf="http://www.w3.org/1999/02/22-rdf-syntax-ns#"
   xmlns:svg="http://www.w3.org/2000/svg"
   xmlns="http://www.w3.org/2000/svg"
   xmlns:xlink="http://www.w3.org/1999/xlink"
   xmlns:sodipodi="http://sodipodi.sourceforge.net/DTD/sodipodi-0.dtd"
   xmlns:inkscape="http://www.inkscape.org/namespaces/inkscape"
   width="210mm"
   height="297mm"
   viewBox="0 0 744.09448819 1052.3622047"
   id="svg2"
   version="1.1"
   inkscape:version="0.91 r13725"
   sodipodi:docname="logo.svg">
  <defs
     id="defs4">
    <linearGradient
       inkscape:collect="always"
       id="lava">
      <stop
         style="stop-color:#c50000;stop-opacity:1"
         offset="0"
         id="stop4164" />
      <stop
         style="stop-color:#e3ff00;stop-opacity:1"
         offset="1"
         id="stop4166" />
    </linearGradient>
    <linearGradient
       inkscape:collect="always"
       xlink:href="#lava"
       id="linearGradient4168"
       x1="-125.07686"
       y1="452.50171"
       x2="-34.887802"
       y2="507.4024"
       gradientUnits="userSpaceOnUse"
       gradientTransform="matrix(0,0.37476001,-3.0860949,1.4064385,1284.249,-276.97235)" />
    <linearGradient
       inkscape:collect="always"
       xlink:href="#lava"
       id="linearGradient4297"
       gradientUnits="userSpaceOnUse"
       gradientTransform="matrix(0,0.37476001,-3.0860949,1.4064385,1284.249,-168.97235)"
       x1="-125.07686"
       y1="452.50171"
       x2="-34.887802"
       y2="507.4024" />
    <clipPath
       clipPathUnits="userSpaceOnUse"
       id="clipPath4299">
      <path
         style="font-style:normal;font-variant:normal;font-weight:normal;font-stretch:normal;font-size:medium;line-height:125%;font-family:'Feast of Flesh BB';-inkscape-font-specification:'Feast of Flesh BB';text-align:center;letter-spacing:0px;word-spacing:0px;text-anchor:middle;fill:#d45500;fill-opacity:1;stroke:none;stroke-width:0.9789114px;stroke-linecap:butt;stroke-linejoin:miter;stroke-opacity:1"
         d="m -96.523438,282.98633 c -2.757039,-0.0634 -5.904072,0.50754 -9.441402,1.71484 -5.59316,1.90896 -11.51835,5.18231 -17.77735,9.82031 -5.85949,4.29318 -11.18633,9.13451 -15.98047,14.52344 -0.12819,0.14781 -0.18792,0.21017 -0.30468,0.34375 l -0.59375,-0.0371 0.25586,0.41992 c -0.75322,0.85231 -1.30044,1.44615 -1.45508,1.55274 l 0,0.99219 -0.19922,0.11914 0.28515,1.39257 -0.48632,1.17774 -0.0625,0.1543 -0.0371,-0.0156 -0.29883,-0.52344 -4.69336,1.91407 -3.69727,3.86718 2.39844,-4.67382 2.39649,-2.07032 -0.0996,-0.27734 -2.09766,-0.95313 -1.39844,-2.23242 4.69532,0.79492 0.49804,1.39258 0.69922,-0.65429 0,-4.2754 1.29883,-0.33789 -0.29883,-0.41992 -1.99805,-0.98437 -1.39843,-2.33789 4.59375,0.93359 0.79882,2.33398 1.29883,-0.33984 -2.09765,-3.87109 c -3.5956,-1.4136 -7.78986,-1.30226 -12.58399,0.33398 -10.98654,3.74974 -20.77575,12.47647 -29.36523,26.17969 -1.31165,2.09486 -2.50584,4.1697 -3.60742,6.22852 -0.55021,-3.01792 -1.54431,-5.70222 -2.98438,-8.04493 l -0.99805,1.48828 -4.89453,-0.31054 1,1.64062 -2.39843,1.44336 0.30078,1.46094 1.59765,0.18359 0.59961,1.98633 -1.19922,0.0957 -0.19921,-0.45312 -1.39844,-0.56445 -0.29883,-0.52344 -4.69531,1.91406 -3.69532,3.86719 2.39649,-4.67383 2.39844,-2.07031 -0.0996,-0.27735 -2.09766,-0.95312 -1.39844,-2.23242 4.69336,0.79492 0.5,1.39258 0.69922,-0.6543 0,-4.27539 1.29883,-0.33789 -0.30078,-0.41992 -1.99805,-0.98438 -1.39648,-2.33789 4.59375,0.9336 0.79883,2.33398 1.29882,-0.33984 -2.09765,-3.8711 c -3.5956,-1.4136 -7.78985,-1.30227 -12.58399,0.33399 -10.98654,3.74972 -20.77575,12.47646 -29.36523,26.17968 -8.18998,13.08041 -12.28516,25.45778 -12.28516,37.13282 0,1.37002 0.0668,2.66689 0.18555,3.90429 -3.03155,2.31241 -5.74053,4.48791 -8.07617,6.50391 0.0666,-8.15355 0.60083,-17.82191 1.59961,-29.00391 0.93219,-9.76937 1.8977,-19.54969 2.89648,-29.34179 -0.79902,0.55068 -1.69848,1.62111 -2.69726,3.21289 -0.99879,1.52228 -1.86523,2.54821 -2.59766,3.07617 l 0.20117,0.24414 -0.30078,0.93555 0.40039,2.36523 -0.79883,3.19141 -1.69922,-4.31836 0.79883,-1.94141 c -1.39829,-0.0787 -2.3638,-0.0275 -2.89648,0.1543 -0.4661,0.15909 -1.13049,0.80423 -1.9961,1.93359 l -1.79882,2.49024 0.30078,0.41797 -0.20118,0.69336 0.30079,1.77539 -0.59961,2.39257 -1.29883,-3.20507 0.40039,-0.97071 -0.0996,0.13867 c -0.39951,0.27536 -0.79971,0.48084 -1.19922,0.61719 -0.33292,0.1136 -0.83219,0.18042 -1.49805,0.19922 -0.0148,4.2e-4 -0.0244,0.001 -0.0391,0.002 0.0137,-0.034 0.0252,-0.0738 0.0391,-0.10742 l -0.1914,0.11914 c -0.56059,0.026 -1.01013,0.0843 -1.30664,0.18555 -0.26635,0.0909 -0.5325,0.21655 -0.79883,0.37695 -0.0128,0.25381 -0.0211,0.51466 -0.0332,0.76953 l -0.26758,0.16602 c 0.3329,-1.85099 0.53301,-3.27389 0.59961,-4.26953 0.79902,-3.88641 1.53141,-6.81273 2.19726,-8.77735 -6.259,4.15155 -10.98555,7.25852 -14.18164,9.32227 l -1.29883,-0.80664 c -9.05558,6.63489 -16.08034,12.33353 -21.07421,17.0957 -2.79658,2.83082 -4.86166,4.99526 -6.19336,6.49219 l 0,0.51953 1.39843,-0.47656 c -0.26634,0.71635 -0.66458,1.61789 -1.19726,2.70312 0.19975,0.48778 0.49892,1.63583 0.89843,3.44532 0.39952,1.39252 0.83274,2.42671 1.29883,3.10156 l 0.0996,-0.24414 c 0.4661,-0.15908 1.19849,-0.7552 2.19727,-1.79102 l 1.99609,-0.99414 -2.89648,3.59375 -1.59766,0.44141 c -0.66585,1.68664 -1.16513,2.96959 -1.49805,3.84765 l 0,3.12696 c 1.66462,-1.47157 2.89629,-2.58654 3.69532,-3.34571 -0.13318,3.31169 -0.13318,6.57611 0,9.79688 l -3.49414,3.9043 c 0.13316,1.8309 0.19921,3.23215 0.19921,4.20507 0.86561,0.608 1.598,1.01805 2.19727,1.23047 -0.93219,2.54198 -1.59854,4.47326 -1.99805,5.79102 1.73121,-1.63327 2.92985,-2.77179 3.59571,-3.41602 0,2.71028 0.69937,11.29574 2.09765,25.75977 0.99878,-3.95459 1.7642,-6.92541 2.29688,-8.91406 0.13317,1.34443 0.39932,3.339 0.79883,5.98242 1.86438,-2.0262 3.29614,-3.55793 4.29492,-4.59375 l 0.0996,1.73828 c 1.46487,-1.40339 2.59746,-2.45095 3.39648,-3.14063 -0.3995,-13.41503 -0.16639,-23.08334 0.69922,-29.00781 3.92852,-3.07816 9.58757,-7.23396 16.97852,-12.46679 0,-0.76443 0.10102,-2.36198 0.30078,-4.79297 l -1.39844,1.72851 -2.09766,0.61133 0.79883,-1.41992 0.59961,-0.20508 1.59766,-1.58789 0.59961,-0.30859 c 0,-1.66787 0.16512,-3.84439 0.49804,-6.5293 -2.79657,1.92739 -5.52604,3.8329 -8.18945,5.71484 l -0.0996,-1.84179 c -2.79657,2.20537 -5.59405,4.51388 -8.39062,6.92773 l 0.80078,-9.54883 c 4.66096,-3.25866 8.15585,-5.91269 10.48633,-7.95898 2.73721,-1.92788 5.751,-3.94979 8.96679,-6.04102 -0.1152,3.59233 -0.17773,7.27488 -0.17773,11.06836 0,10.42413 0.60029,25.95972 1.79883,46.60742 l 1.99609,-2.45312 2.69727,-0.50391 -0.89844,1.5586 -0.69922,0.23828 -1.89844,1.79492 -1.09765,0.47851 0.29882,3.85938 0.19922,-1.00781 c 0.33293,1.55424 0.63405,2.63424 0.90039,3.23828 8.31162,-8.26515 16.32686,-15.42204 24.05274,-21.49024 0.96419,1.27896 2.0968,2.36911 3.41211,3.25586 l -0.99805,-1.53515 4.69336,0.79492 0.90039,2.71484 c 3.52901,0.81088 7.32307,0.52494 11.38477,-0.86133 10.52044,-3.59065 20.14258,-12.36511 28.86523,-26.32226 1.34149,-2.14917 2.56223,-4.26805 3.6875,-6.36328 0.86767,5.84304 3.19683,10.05511 7,12.61914 l -1,-1.53711 4.69531,0.79687 0.89844,2.71485 c 3.52901,0.81087 7.32503,0.52494 11.38672,-0.86133 10.52045,-3.59065 20.14063,-12.36511 28.86328,-26.32227 7.34903,-11.77373 11.45044,-22.73755 12.31055,-32.89257 0.5735,11.72363 1.86088,25.97934 3.87109,42.79687 0.79902,-1.03715 1.43039,-1.8079 1.89649,-2.31445 l 1.29882,0.49414 -0.39843,-0.38477 0.19921,-0.79687 -0.5996,-2.40235 0.5996,-3.33203 1.89649,3.62696 1.5,-3.11719 c 0.66585,0.46768 1.59639,1.19105 2.79492,2.17187 1.19853,-1.03451 2.09799,-1.8269 2.69727,-2.3789 -0.26633,-3.73128 -0.4334,-6.52334 -0.5,-8.37696 5.26022,0.22001 11.38746,0.17832 18.378902,-0.12304 3.062916,-0.14196 9.254256,-0.48263 18.576172,-1.02344 l -0.199218,-0.97461 -0.09961,0.0332 -0.699218,-0.49023 -2.796876,0.0156 -2.597656,-1.50976 c 3.529012,-0.718 5.528046,-1.15733 5.994141,-1.31641 -0.599266,-2.50574 -0.966439,-4.43096 -1.099609,-5.77539 l 1.697265,-0.0586 c -0.13317,-2.03938 -0.265267,-3.55773 -0.398437,-4.55469 -8.789236,-0.12746 -17.678978,-1.02009 -26.667966,-2.67773 13.516776,-14.34251 20.275388,-27.35036 20.275388,-39.0254 -10e-7,-5.62903 -2.063129,-9.26726 -6.191407,-10.91601 -1.373318,-0.49552 -2.888745,-0.76273 -4.542969,-0.80078 z m -9.185542,19.38086 c 2.35961,-0.11474 3.54101,1.21026 3.54101,3.97265 0,4.37815 -4.36133,10.87047 -13.08398,19.47657 0,-2.98826 0.49926,-9.72584 1.49804,-20.21289 2.06414,-1.26044 3.82811,-2.14066 5.29297,-2.64063 1.04872,-0.35793 1.96542,-0.55746 2.75196,-0.5957 z m -24.42579,4.55273 -3.14062,4.09766 c -0.24683,-0.58402 -0.52081,-1.14728 -0.8125,-1.69727 l 0.95703,-0.96093 2.99609,-1.43946 z m -23.66992,6.20117 3.09571,0.50782 0.5996,1.88086 -1.19921,0.19921 -0.19922,-0.45312 -1.39844,-0.66797 -0.89844,-1.4668 z m 24.56836,0.16211 -1.99609,2.66407 -0.53906,0.15039 c -0.0606,-0.32395 -0.13422,-0.63896 -0.20508,-0.95508 0.32113,-0.23717 0.72816,-0.60557 1.24218,-1.13867 l 1.49805,-0.72071 z m -10.7207,1.34571 0.041,0.13476 -0.10546,0.11719 c 0.0452,0.0632 0.1097,0.10995 0.18554,0.14844 l 0.3125,1.03515 -1.19726,0.0977 -0.20118,-0.45313 -0.60351,-0.24414 c 0.42281,-0.175 0.94363,-0.45152 1.56836,-0.83593 z m -5.25977,4.10937 2.19727,0.39649 0.5,1.39257 -0.89844,0.0996 -0.0996,-0.38281 -1,-0.38867 -0.69922,-1.11719 z m -9.94922,5.56055 c 1.99756,-0.014 3.68333,0.63519 5.05664,1.94726 2.19732,2.02982 3.29493,5.05918 3.29493,9.08985 0,6.32398 -2.16415,13.04028 -6.49219,20.14648 -4.59437,7.54459 -9.85322,12.32703 -15.7793,14.34961 -3.86194,1.31809 -6.92556,0.90391 -9.18945,-1.24219 -2.13072,-1.98305 -3.19531,-4.98886 -3.19531,-9.01953 0,-6.32397 2.19718,-13.05075 6.59179,-20.17969 4.59438,-7.54457 9.85323,-12.32702 15.7793,-14.3496 1.42326,-0.48577 2.73506,-0.73381 3.93359,-0.74219 z m -54.17187,7.77734 3.0957,0.50586 0.59961,1.88086 -1.19726,0.19922 -0.20118,-0.45313 -1.39843,-0.66796 -0.89844,-1.46485 z m 8.58984,5.61524 2.19727,0.39648 0.5,1.39258 -0.90039,0.0996 -0.0996,-0.38281 -0.99805,-0.38868 -0.69922,-1.11718 z m -9.95117,5.56054 c 1.99755,-0.014 3.68333,0.63519 5.05664,1.94727 2.19732,2.02981 3.29688,5.05918 3.29688,9.08984 0,6.32398 -2.16416,13.04029 -6.49219,20.14649 -4.59437,7.54458 -9.85517,12.32702 -15.78125,14.34961 -3.86193,1.31808 -6.92361,0.90586 -9.1875,-1.24024 -2.13073,-1.98305 -3.19727,-4.99082 -3.19727,-9.02148 0,-6.32398 2.19718,-13.05076 6.5918,-20.17969 4.59437,-7.54457 9.85517,-12.32702 15.78125,-14.34961 1.42326,-0.48576 2.73311,-0.7338 3.93164,-0.74219 z m 119.916017,3.71289 1.199219,1.25782 -1.09961,0.48046 -0.398437,-0.28124 -1.597657,0.0234 -1.398437,-0.77343 3.294922,-0.70704 z m -35.056637,2.47852 1.29882,2.37109 -0.69921,2.01172 -0.69922,-0.5957 0.0996,-0.55469 -0.29883,-1.35742 0.29883,-1.875 z m 3.5957,3.25586 1.49805,3.0332 -0.79883,2.46094 -0.89844,-0.73633 0.19922,-0.69336 -0.40039,-1.74023 0.40039,-2.32422 z m -143.02539,1.69726 0.79883,0.87305 -0.19922,0.69336 0.30078,1.77539 -0.59961,2.28906 -1.29883,-3.20507 0.99805,-2.42579 z m -75.60742,8.8125 c -6.32559,3.75731 -11.75151,7.10383 -16.2793,10.03907 l -1.39844,-0.77344 c -10.18752,6.88225 -18.27686,12.94546 -24.26953,18.1875 -2.45281,2.27714 -4.26002,4.00958 -5.73242,5.46094 0.56345,-6.57614 1.19907,-13.58113 1.93555,-21.15821 -0.73244,0.52796 -1.62996,1.56437 -2.69532,3.10938 -0.99877,1.52229 -1.83219,2.53579 -2.49804,3.04101 l 0,0.10547 -0.29883,0.93555 0.29883,2.60937 -0.89844,3.32813 -1.59766,-4.66602 0.69922,-1.69726 c -0.99878,-0.0761 -1.8322,-7e-4 -2.49805,0.22656 -0.79901,0.27271 -1.76453,1.29604 -2.89648,3.07227 -1.06537,1.68399 -2.22902,2.74204 -3.49414,3.17382 -0.33292,0.11361 -0.83415,0.18042 -1.5,0.19922 -0.66585,0.0188 -1.16512,0.0856 -1.49805,0.19922 -0.26634,0.0909 -0.53249,0.21656 -0.79883,0.37696 -0.26634,6.83184 -0.39843,13.51246 -0.39843,20.04492 0,3.26622 0.033,6.52212 0.0996,9.76562 l -9.08985,7.0625 c 0.4661,-6.76104 1.23347,-15.22246 2.29883,-25.38476 -0.86561,0.57341 -1.76507,1.08973 -2.69726,1.54687 l 0,-1.98047 c 0.0666,-0.99564 0.0996,-1.70217 0.0996,-2.11914 -1.93097,1.2845 -3.36272,2.2582 -4.29492,2.92383 -1.19852,1.86844 -2.09799,3.2869 -2.69726,4.25586 -0.39952,-0.83656 -0.79777,-1.74124 -1.19727,-2.7168 -1.92807,1.48454 -2.94323,2.23257 -4.39062,3.33008 l 0.19531,-2.10742 -0.89844,0.30664 -2.29687,2.13867 -2.99805,1.23242 4.0957,-4.9414 2.19727,-0.4375 c 0,-0.55596 -0.0661,-1.40311 -0.19922,-2.53906 -0.0666,-1.22818 -0.0996,-2.15386 -0.0996,-2.7793 0,-0.55596 0.033,-1.08847 0.0996,-1.59766 -1.19853,0.68705 -2.33112,1.28061 -3.39648,1.7832 0.33292,-1.36451 0.59907,-2.53229 0.79882,-3.5039 -11.25288,7.31535 -24.73513,17.58077 -40.44921,30.79687 l 1.09765,2.33594 c -0.4661,3.00834 -0.66621,5.33533 -0.59961,6.98047 1.13194,0.23911 1.96537,0.40578 2.49805,0.50195 -0.86561,1.33785 -1.56498,2.37552 -2.09766,3.11328 l -0.59961,5.52149 c 3.72878,-3.35746 7.59084,-6.76061 11.58594,-10.20899 0.39951,12.44211 1.76522,28.72529 4.0957,48.84766 l 1.89649,-2.10742 1.39844,0.66992 0.0996,-0.13867 -1.19727,-3.24024 1.59766,-3.56836 0.99804,1.32813 -0.39843,0.96875 0.29882,1.98438 1.79883,-3.42969 c 1.13195,1.07304 2.06248,1.86836 2.79492,2.38281 1.13195,-0.80329 2.03142,-1.45765 2.69727,-1.96289 -0.39951,-3.89431 -0.59961,-6.9199 -0.59961,-9.07422 0,0.13899 0.13405,-0.84494 0.40039,-2.95117 0.13317,-0.94887 0.19922,-2.67399 0.19922,-5.17578 0,-14.17684 0.63332,-26.93497 1.89844,-38.27735 2.62725,-1.70317 5.64283,-3.51747 9.02734,-5.4375 0.088,8.84258 0.43039,17.83979 1.06055,27.01172 -0.86561,0.92088 -2.09922,2.27986 -3.69727,4.07617 0.53268,1.69454 0.89985,2.9937 1.09961,3.89844 1.19853,0.35538 2.2981,0.60638 3.29688,0.75196 -0.59928,2.49784 -1.0325,4.34798 -1.29883,5.55078 0.73243,-0.59746 1.29775,-1.10326 1.69726,-1.51758 0.66586,6.79166 1.39826,13.56043 2.19727,20.30664 0.46611,-0.64553 1.09942,-1.34826 1.89844,-2.10742 l 1.39843,0.66992 c 1.3317,-2.67833 2.36327,-4.69866 3.09571,-6.06055 1.19853,0.98082 2.13103,1.77418 2.79687,2.38086 1.13196,-0.94229 2.02947,-1.63067 2.69531,-2.06641 -0.33292,-3.84754 -0.49804,-7.09164 -0.49804,-9.73242 0,-0.27798 0.066,-0.68293 0.19922,-1.21484 0.13316,-0.53191 0.19921,-0.86882 0.19921,-1.00781 0.13318,-1.08786 0.20118,-2.91699 0.20118,-5.48828 l 0,-7.81836 c 4.59437,-3.37492 8.02321,-5.9341 10.28711,-7.67969 0.59926,10.42809 1.06551,18.26062 1.39843,23.49805 l 0.29883,-0.10157 2.69727,-10.92773 c 0.33292,3.63905 0.63209,6.3153 0.89844,8.03125 1.26511,-1.4047 2.23063,-2.46402 2.89648,-3.17774 l -1.09961,-3.37695 1.5,-3.42969 0.99805,1.32618 -0.30078,0.9375 c 0.19975,1.3217 0.30078,2.15448 0.30078,2.50195 0,0.20849 -0.033,0.39493 -0.0996,0.55664 l 0.99804,-1.17578 c 0.0666,1.01969 0.0996,1.80733 0.0996,2.36328 1.7978,-1.7255 3.16351,-3.02432 4.09571,-3.89844 -0.10097,-10.55683 0.77949,-26.78976 2.63086,-48.64062 l 0.26562,-0.0898 c -0.19975,0.55464 -0.30078,1.56015 -0.30078,3.01953 -0.0666,1.41261 -0.19868,2.36251 -0.39844,2.84766 0.66586,0.88465 1.19815,1.53548 1.59766,1.95508 l 1.89844,-2.31445 2.09765,-0.4043 -0.69922,1.17773 -0.59961,0.20508 -1.49804,1.34375 -0.89844,0.41211 0.29883,0.31445 -2.09766,4.78125 0,3.12696 c 2.13072,-1.70014 4.3279,-3.56237 6.5918,-5.58594 0,3.19674 0.13405,6.27925 0.40039,9.24609 -1.19853,1.243 -2.26507,2.37167 -3.19727,3.38477 0,0.41697 0.033,1.10059 0.0996,2.05078 l 0,2.1875 c 0.73244,0.44496 1.56586,0.82161 2.49805,1.12891 -1.06537,2.65692 -1.83078,4.62159 -2.29688,5.89257 0.9322,-0.73512 2.16386,-1.81607 3.69532,-3.24218 0.53268,6.21166 1.19902,12.30923 1.99804,18.29101 l -1.19921,1.13867 c 0.33292,0.7898 0.66512,1.37132 0.99804,1.74415 -0.26633,0.57736 -0.56551,1.40759 -0.89843,2.49414 0.73243,0.16698 1.33077,0.20677 1.79687,0.11718 l 0.10156,0.38282 c -1.39828,1.93662 -2.09765,4.26042 -2.09765,6.9707 3.92852,-3.9121 7.62351,-7.43297 11.08593,-10.56055 l 0.40039,0.17774 c 1.19853,-0.82603 2.09604,-1.41234 2.69532,-1.75586 l -0.0996,-1.11133 2.99609,-2.58789 c 5.12705,-4.39066 10.8541,-8.5334 17.17969,-12.42969 0.26635,-1.13331 0.49946,-2.01258 0.69922,-2.63672 l -1.19922,-1.1543 1.39844,-0.99804 0.0996,-1.70117 -0.49805,0.16992 -2.19727,2 -2.89648,1.19726 3.89453,-4.66406 1.79687,-0.40625 c 10e-6,-0.55595 0.068,-1.27296 0.20118,-2.15234 -1.26512,0.84875 -2.19761,1.44554 -2.79688,1.78906 0.26634,-1.27231 0.49947,-2.29157 0.69922,-3.05469 -6.52533,4.65942 -12.98477,9.74824 -19.37695,15.26563 0,-7.2969 0.16707,-13.6779 0.5,-19.14258 7.05802,-5.18869 13.61654,-9.75484 19.67578,-13.69922 0.19976,-4.5853 0.53195,-8.76432 0.99805,-12.53711 -3.19609,2.06375 -6.25775,4.08184 -9.1875,6.05469 l -0.10157,-1.8418 c -4.59437,3.58341 -8.05624,6.25903 -10.38672,8.02735 0.39952,-4.30602 0.69869,-7.22245 0.89844,-8.75 6.12584,-4.45357 13.28464,-9.18992 21.47461,-14.20899 0.26634,-1.27231 0.79864,-3.1218 1.59766,-5.54883 -1.26512,0.70977 -2.23064,1.28301 -2.89649,1.71875 0.39952,-1.10927 0.86576,-2.31175 1.39844,-3.60547 l -1.29883,1.27735 -1.79687,0.7168 2.39648,-2.90235 1.19922,-0.20117 c 0.26632,-0.85533 0.43145,-2.12777 0.49805,-3.81836 0.0666,-1.69059 0.26668,-2.97545 0.59961,-3.85352 z m 39.25195,7.24414 -1.99609,2.14063 -1.19922,0.20117 0.5,-0.90039 0.39843,-0.13672 0.99805,-0.86133 1.29883,-0.44336 z m -4.79297,0.69727 -2.79687,3.03906 -1.79883,0.30078 0.79883,-1.31445 0.5,-0.0664 1.49804,-1.34571 1.79883,-0.61328 z m 123.54883,0.88477 2.69531,0.43554 0.5,1.70508 -0.99805,0.13281 -0.20117,-0.45312 -1.19726,-0.5293 -0.79883,-1.29101 z m -5.99414,4.54687 4.69531,0.79492 0.99805,2.89063 -1.89649,0.23047 -0.30078,-0.73047 -2.09765,-0.84766 -1.39844,-2.33789 z m 6.99219,2.41016 2.69726,0.43359 0.49805,1.70508 -0.99805,0.0293 -0.19922,-0.34961 -1.19922,-0.5293 -0.79882,-1.28906 z m -212.93946,10.44336 0.69922,0.9082 -0.29883,0.62305 0.29883,1.66992 -0.69922,2.32422 -1.09765,-3.16992 1.09765,-2.35547 z m 156.40821,1.55273 2.69726,0.43555 0.5,1.70508 -1,0.13281 -0.19922,-0.45313 -1.19922,-0.52929 -0.79882,-1.29102 z m -138.5293,4.125 -1.09961,1.93945 -0.79883,0.27149 -2.19726,2.00195 -2.89649,1.19531 3.89453,-4.76757 3.09766,-0.64063 z m 134.80664,0.80664 2.42383,0.41016 1,2.89062 -1.89844,0.23242 -0.29883,-0.73242 -2.09765,-0.84765 -0.54688,-0.91211 c 0.47455,-0.35411 0.94569,-0.69542 1.41797,-1.04102 z m 4.72266,2.02539 2.69531,0.4336 0.5,1.70703 -0.99805,0.0273 -0.20117,-0.34961 -1.19727,-0.52929 -0.79882,-1.28907 z m -188.26954,7.75781 0.99805,1.32618 -0.29883,0.93554 0.29883,2.60938 -0.89844,3.33008 -1.59765,-4.66797 1.49804,-3.53321 z m -3.34765,0.34961 c -0.34892,0.26399 -0.77675,0.59217 -1.0957,0.83204 -0.0179,-0.0229 -0.0348,-0.0412 -0.0527,-0.0645 l 1.14844,-0.76758 z m -8.83789,0.47266 -0.79883,1.41992 -0.69922,0.23828 -1.59765,1.48438 -2.09766,0.81836 2.89648,-3.38477 2.29688,-0.57617 z m 1.99804,2.23633 -0.5,0.90039 -0.40039,0.13672 -0.99804,0.86133 -1.29883,0.54882 1.69922,-2.14453 1.49804,-0.30273 z m 15.18165,1.80273 0.69726,0.90821 -0.19922,0.69336 0.19922,1.70507 -0.59765,2.18555 -1.09961,-3.06641 1,-2.42578 z m 119.15234,3.74024 0.59961,0.3164 -0.0996,0.45118 0.30078,0.93945 -0.20117,1.42383 -1.09766,-1.39649 0.49805,-1.73437 z m 29.96484,0.61523 -0.20117,0.69336 0.0996,-0.66016 0.10156,-0.0332 z m -150.8164,2.27149 0.40039,0.48828 c -0.0666,0.50918 -0.0666,0.99525 0,1.45898 l -0.40039,1.28321 -0.59961,-1.88086 0.59961,-1.34961 z m 118.85547,0.81836 0.79882,0.45703 -0.0996,0.55468 0.49805,1.39258 -0.39844,2.11719 -1.49804,-2.09375 0.69922,-2.42773 z m -50.53907,14.64257 -0.59961,1.14258 -0.49804,0.16992 -1.29883,1.17383 -1.79883,0.7168 2.39844,-2.79883 1.79687,-0.4043 z m -40.75,3.69141 0.69922,0.80469 -0.29883,0.72656 0.29883,1.66992 -0.69922,2.32422 -1.09765,-3.16992 1.09765,-2.35547 z m -29.86328,25.41211 0.69922,0.9082 -0.19922,0.69336 0.19922,1.8086 -0.59961,2.28906 -1.09766,-3.27344 0.99805,-2.42578 z m -25.06836,0.42578 0.69922,1.01172 -0.20117,0.69336 0.20117,1.91211 -0.59961,2.49805 -1.19922,-3.55079 1.09961,-2.56445 z m -3.39648,5.32813 0.59961,0.73437 -0.20117,0.58984 0.20117,1.49414 -0.5,1.8379 -0.99805,-2.68164 0.89844,-1.97461 z"
         id="path4301"
         inkscape:connector-curvature="0" />
    </clipPath>
    <clipPath
       clipPathUnits="userSpaceOnUse"
       id="clipPath4303">
      <path
         style="font-style:normal;font-variant:normal;font-weight:normal;font-stretch:normal;font-size:medium;line-height:125%;font-family:'Feast of Flesh BB';-inkscape-font-specification:'Feast of Flesh BB';text-align:center;letter-spacing:0px;word-spacing:0px;text-anchor:middle;fill:#d45500;fill-opacity:1;stroke:none;stroke-width:0.9789114px;stroke-linecap:butt;stroke-linejoin:miter;stroke-opacity:1"
         d="m -139.71875,404.8457 c -3.06291,1.74033 -5.39219,3.64837 -6.99023,5.72266 l -1.19922,-1.78125 -2.89649,1.82422 0.19922,2.32812 -1.09765,3.18946 -1.09961,-4.21094 -3.59375,2.16601 c 0,12.231 1.46479,26.84467 4.39453,43.84375 0.53268,-0.39028 1.16404,-0.91898 1.89648,-1.58593 l 1.39844,0.2539 c 1.39829,-2.0061 2.46287,-3.51683 3.19531,-4.53125 0.79902,0.56122 1.73152,1.00657 2.79688,1.33789 1.19853,-0.68703 2.098,-1.23737 2.69726,-1.65039 -0.39951,-2.08746 -0.59961,-4.31103 -0.59961,-6.67383 0,-0.13898 0.10103,-0.86842 0.30078,-2.1875 0.19976,-1.31907 0.29883,-2.32653 0.29883,-3.02148 0,-8.89526 0.96552,-20.06573 2.89649,-33.51172 -1.7312,0.86884 -2.63067,1.31516 -2.69727,1.33789 0.0666,-1.27362 0.0996,-2.22416 0.0996,-2.84961 z m -26.26758,8.33985 c -2.72999,2.32163 -4.72707,4.25513 -5.99219,5.79883 -0.99878,1.3138 -1.66512,2.30502 -1.99804,2.9746 -0.13317,0.11494 -0.29829,0.20722 -0.49805,0.2754 -0.13317,0.0455 -0.33326,-0.0258 -0.59961,-0.2129 -0.26633,-0.25656 -0.56551,-0.32847 -0.89844,-0.21484 0.26634,-0.0909 -0.73415,0.59684 -2.99804,2.06445 0.26634,-1.75876 0.60049,-3.53953 1,-5.34375 -1.7978,1.30854 -3.13048,2.28483 -3.9961,2.92774 -1.66462,1.74954 -2.76224,3.0627 -3.29492,3.93945 l 0.5,1.18359 -0.5,1.00586 -0.30078,2.91602 -1.49805,3.5332 -0.59765,-5.11132 1.69726,-2.87305 -0.0996,0.0351 c -2.53024,1.41954 -4.46127,2.35604 -5.79297,2.81055 -1.84251,1.25495 -2.91428,2.01771 -4.17773,2.90235 0.57537,-1.40809 1.08114,-2.6811 1.67969,-4.13477 l -2.79688,0.43359 c 0.73244,-2.12633 1.29971,-3.71022 1.69922,-4.75 -0.93219,0.31816 -2.43001,0.72665 -4.49414,1.22266 -1.66463,1.54107 -2.93127,2.70249 -3.79687,3.48437 0,-1.59836 0.033,-2.86096 0.0996,-3.78711 l -1.49805,0.51172 0.10156,0.38282 -0.59961,1.03711 -0.59961,3.12304 -2.09765,3.63477 0.0996,-6.1836 1,-1.27929 -2.79687,0.95508 c -1.26512,0.36229 -2.19761,0.64508 -2.79687,0.84961 -5.12707,15.71822 -10.15474,33.59095 -15.08204,53.61914 -0.53268,-6.21167 -0.8979,-13.62554 -1.09765,-22.24414 -0.19976,-7.5067 -0.36684,-15.02527 -0.5,-22.55469 -0.53268,0.45978 -1.43215,1.80823 -2.69727,4.04687 -1.13194,1.9152 -2.13049,3.02098 -2.99609,3.31641 -0.19976,0.0682 -0.43288,0.11336 -0.69922,0.13476 l 0.0996,0.0703 -0.19922,0.79687 0.59961,1.77735 -0.30078,2.5 -1.89649,-3.10547 0.59961,-2.08203 c -0.33293,0.0441 -0.56605,0.0893 -0.69922,0.13476 -1.06536,0.36361 -2.16492,1.60678 -3.29687,3.73047 -1.13195,2.0542 -2.29756,3.28625 -3.49609,3.69531 -0.26634,0.0909 -0.63156,0.18191 -1.09766,0.27149 -0.46609,0.0896 -0.83327,0.17863 -1.09961,0.26953 -0.46609,0.15908 -0.93234,0.42345 -1.39844,0.79101 0.46811,6.05827 1.2399,12.61319 2.25196,19.56446 -2.96324,1.98026 -4.78549,3.19167 -4.84766,3.21289 -1.53146,-10.94386 -2.3979,-21.69923 -2.59766,-32.26367 -2.72999,2.32163 -4.72706,4.25513 -5.99218,5.79882 -0.99878,1.31381 -1.66512,2.30503 -1.99805,2.97461 -0.13317,0.11494 -0.29829,0.20722 -0.49805,0.27539 -0.13317,0.0455 -0.33327,-0.0258 -0.59961,-0.21289 -0.26634,-0.25656 -0.56551,-0.32847 -0.89843,-0.21484 0.26633,-0.0909 -0.73416,0.59879 -2.99805,2.06641 0.26634,-1.75877 0.60049,-3.54149 1,-5.34571 -1.7978,1.30854 -3.13049,2.28483 -3.9961,2.92774 -1.66462,1.74954 -2.76224,3.0627 -3.29492,3.93945 l 0.49805,1.18359 -0.49805,1.00586 -0.30078,2.91602 -1.49805,3.53515 -0.5996,-5.11328 1.69921,-2.87109 -0.0996,0.0332 c -2.53024,1.41954 -4.46126,2.35604 -5.79296,2.81055 -2.86316,1.95011 -5.02732,3.45385 -6.49219,4.50977 -1.99756,13.32972 -2.9961,22.11436 -2.9961,26.35351 0,0.69494 0.0991,1.7377 0.29883,3.12891 0.26634,1.36847 0.40039,2.40075 0.40039,3.0957 0,1.11191 -0.26614,2.00166 -0.79883,2.66992 -0.53266,0.66827 -0.83379,1.29242 -0.90039,1.8711 -0.27439,1.8406 -0.48557,3.96221 -0.6582,6.25195 -6.51951,4.9246 -11.57552,8.77338 -14.92187,11.36523 0,-15.35823 1.09761,-32.58521 3.29492,-51.68164 -1.26512,0.70977 -2.26366,1.29349 -2.9961,1.75196 0,-1.38989 0.068,-2.80295 0.20118,-4.23829 -1.7978,1.23904 -3.36362,2.26051 -4.69532,3.0625 -1.39829,2.1451 -2.3638,3.58646 -2.89648,4.32422 -0.59927,-0.90738 -1.06551,-1.75708 -1.39844,-2.54687 l -2.09765,1.44726 0.40039,0.48829 -0.30078,0.93554 0.40039,2.47071 -0.79883,3.1914 -1.69727,-4.32031 0.69727,-1.80274 c -2.59682,1.85922 -4.56088,3.2602 -5.89258,4.20118 0,16.05316 1.29967,34.85957 3.89648,56.41992 -0.26632,1.61977 -0.4334,2.85818 -0.5,3.71484 l 1.19922,-1.45117 1.89649,-0.43945 -0.69922,1.17578 -0.49805,0.17187 -1.29883,1.17188 -0.69922,0.34375 -0.0996,1.70117 1.39844,0.25195 c -0.33292,1.08654 -0.63404,2.12676 -0.90039,3.1211 0.33293,1.62372 0.63405,2.77373 0.90039,3.44726 9.97537,-9.79746 19.18287,-17.86661 27.625,-24.20703 -0.0731,6.98011 -0.18647,12.05097 -0.35937,14.27539 l 0.19922,-0.0684 c 1.06535,-2.8654 1.89878,-4.99101 2.49804,-6.37695 -0.19975,1.94453 0.20044,2.74518 1.19922,2.4043 0.59926,-0.20454 2.2622,-1.8135 4.99219,-4.83008 -0.13317,0.94888 -0.19922,1.73588 -0.19922,2.36133 1.73121,-1.70278 3.0639,-2.9571 3.99609,-3.76172 0.39952,-4.445 1.16494,-10.37015 2.29688,-17.77539 5.72633,-4.94267 9.98663,-8.37729 12.7832,-10.30469 1.46488,5.82402 3.12976,12.03197 4.99414,18.62305 2.53024,-1.97549 4.42825,-3.42356 5.69336,-4.3418 -0.26634,-1.43797 -0.39843,-2.29625 -0.39843,-2.57422 l 1.49804,-0.92773 c 0.19976,-0.69362 0.53196,-1.25826 0.99805,-1.69532 l -1.29883,-1.85156 0.79883,-2.66992 0.79883,0.45703 -0.0996,0.76367 0.5,1.39453 -0.19922,1.42188 c 0.4661,-0.29807 1.06444,-0.53631 1.79687,-0.7168 0.99878,-0.1324 1.59908,-0.2326 1.79883,-0.30078 0.33293,-0.11363 0.63211,-0.28573 0.89844,-0.51562 -1.59804,-7.02946 -2.73063,-12.72462 -3.39649,-17.08399 l 1.99805,-1.30664 c 0.59239,-5.33384 1.00316,-9.02143 1.33203,-11.95508 0.527,3.53319 1.0983,7.13808 1.76368,10.89844 0.79901,4.73088 2.76307,15.00522 5.89257,30.82422 l 0.59961,-0.30859 c 0.59927,-4.1657 1.0325,-7.26599 1.29883,-9.30274 0.79903,3.2715 1.43039,5.73113 1.89649,7.37891 1.53145,-2.12106 3.09727,-4.18466 4.69531,-6.18946 l 0.40039,2.15625 c 1.53145,-1.77358 2.76312,-3.20061 3.69531,-4.2832 -0.26634,-1.57696 -0.46644,-3.17642 -0.59961,-4.79883 l 0.39844,-0.44922 c 0.39951,1.18404 0.83273,2.6343 1.29883,4.35157 l 2.89648,-0.98828 1.39844,-5.89844 c 0.59927,-2.42835 1.23258,-4.38122 1.89844,-5.85938 2.86316,-7.71814 4.89326,-13.51857 6.09179,-17.40234 3.01139,-8.77682 7.29829,-20.06144 12.7793,-33.69531 -1.36759,9.73129 -2.0918,16.53343 -2.0918,20.04101 0,0.69494 0.0991,1.7377 0.29883,3.12891 0.26634,1.36847 0.40039,2.40075 0.40039,3.0957 0,1.11191 -0.26614,2.00166 -0.79883,2.66992 -0.53266,0.66827 -0.83379,1.29047 -0.90039,1.86914 -0.66584,4.46641 -1.03105,10.25605 -1.09765,17.36719 -0.0666,8.918 -0.20064,14.66245 -0.40039,17.23242 l 0.20117,-0.0684 c 1.06536,-2.8654 1.89683,-4.99102 2.49609,-6.37695 -0.19976,1.94453 0.20043,2.74518 1.19922,2.4043 0.59926,-0.20454 2.26415,-1.81545 4.99414,-4.83203 -0.13317,0.94888 -0.20117,1.73783 -0.20117,2.36328 1.73122,-1.70278 3.06391,-2.9571 3.99609,-3.76172 0.39951,-4.445 1.16492,-10.37014 2.29688,-17.77539 5.72632,-4.94266 9.98663,-8.37729 12.7832,-10.30469 1.46487,5.82402 3.12976,12.03001 4.99414,18.62109 2.53024,-1.97548 4.42825,-3.4216 5.69336,-4.33984 -0.26634,-1.43797 -0.39844,-2.29624 -0.39844,-2.57422 l 1.49805,-0.92773 c 0.19976,-0.69362 0.53195,-1.25825 0.99805,-1.69531 l -1.29883,-1.85157 0.79883,-2.66992 0.79883,0.45703 -0.0996,0.76367 0.5,1.39258 -0.19922,1.42383 c 0.46609,-0.29807 1.06443,-0.53631 1.79687,-0.7168 0.99878,-0.1324 1.59907,-0.2326 1.79883,-0.30078 0.33292,-0.11362 0.63209,-0.28572 0.89844,-0.51562 -1.59805,-7.02946 -2.73063,-12.72463 -3.39649,-17.08399 l 1.99805,-1.30664 c 0.66585,-5.99528 1.16512,-10.4746 1.49805,-13.4375 -3.39583,2.27091 -5.12676,3.41868 -5.19336,3.44141 -1.53146,-10.94386 -2.3979,-21.69923 -2.59766,-32.26367 z m 17.37891,1.57422 0.5,0.97656 -0.19922,0.58984 0.0996,1.63281 -0.69922,2.11524 -0.79883,-3.16797 1.09766,-2.14648 z m 2.39844,5.95703 0.49804,0.76758 -0.19922,0.48632 0.0996,1.42578 -0.59961,1.76758 -0.69922,-2.67968 0.9004,-1.76758 z m -27.56641,2.84179 0.79883,0.45703 -0.0996,0.66016 0.49805,1.4961 -0.39844,2.42968 -1.59766,-2.37304 0.79883,-2.66993 z m -29.46484,8.70118 0.29882,1.14843 -0.39843,0.65821 -0.40039,1.9082 -1.19727,2.07617 0.0996,-3.68164 1.59766,-2.10937 z m 13.68359,3.98242 0.39844,0.80078 -0.29883,0.51953 -0.0996,1.59766 -0.89844,1.87109 -0.30078,-2.71289 1.19922,-2.07617 z m 7.68945,2.06445 c 0.73244,5.17057 1.76596,10.79509 3.09766,16.87305 l -7.5918,6.55273 c 0.33292,-3.17137 0.96625,-7.07046 1.89844,-11.69726 l 2.5957,-11.72852 z m -24.96875,3.51953 0.19922,0.76563 -0.29883,0.41406 -0.19922,1.32031 -0.90039,1.45313 0.10157,-2.53516 1.09765,-1.41797 z m -32.16015,10.14258 0.89843,0.83984 -0.0996,0.76368 0.59961,1.77539 -0.40039,2.53515 -1.89648,-3.10547 0.89844,-2.80859 z m -22.07227,1.38281 0.79883,0.45703 -0.0996,0.66016 0.49805,1.49805 -0.39844,2.42968 -1.59961,-2.375 0.80078,-2.66992 z m 122.74805,7.6211 -18.17774,9.85156 1.29883,10.39844 2.39649,-2.38282 2.29882,-0.26172 -1,1.38282 -0.59961,0.0996 -1.79687,1.34375 -1.29883,0.44336 0.40039,2.88672 19.07617,-10.88868 -0.5,-2.64453 -2.49609,-0.91992 1.69727,-3.08203 -0.29883,-1.56445 -0.0996,0.0332 -2.39844,1.86133 -2.99609,0.91797 4.49414,-4.45313 0.59961,-0.0996 -0.59961,-2.92187 z m -138.5293,5.0625 0.39844,0.80078 -0.29883,0.51953 -0.0996,1.59765 -0.89844,1.8711 -0.30078,-2.71289 1.19922,-2.07617 z m 7.68945,2.0664 c 0.73244,5.17057 1.76596,10.7951 3.09766,16.87305 l -7.5918,6.55078 c 0.33293,-3.17137 0.96625,-7.07046 1.89844,-11.69727 l 2.5957,-11.72656 z m 119.6543,6.17383 -0.69922,0.96875 -0.5,0.16992 -1.29687,0.96485 -1.5,0.40625 2.29883,-2.24219 1.69726,-0.26758 z m -163.5,0.86719 0.69922,0.9082 -0.19922,0.69336 0.29883,1.77539 -0.59961,2.28906 -1.29688,-3.20507 1.09766,-2.46094 z m -41.74805,0.38476 c -8.58948,7.17076 -16.44766,15.16902 -23.57226,23.99414 -9.45509,11.70534 -14.18164,21.173 -14.18164,28.4004 0,2.98825 1.19863,5.25414 3.5957,6.79882 1.26511,0.81911 3.66239,1.73846 7.19141,2.75782 1.19853,-0.75654 2.12907,-1.24931 2.79492,-1.47657 0.66585,-0.22726 1.20009,0.009 1.59961,0.70703 0.53268,0.93011 1.2981,1.46771 2.29687,1.61329 l 5.5918,0.80078 c 2.26389,0.6172 3.39648,1.79389 3.39648,3.53125 0,3.40522 -4.12821,9.54031 -12.38476,18.40429 l 4.69531,-1.28906 0.29883,-0.62305 0.59961,-0.31054 1.69726,-1.9336 2.09766,-1.34179 -3.0957,4.28906 -0.89844,0.41016 0.69922,2.05468 c 0.99878,-0.34088 1.76419,-0.56737 2.29687,-0.67968 0.59926,-0.0655 0.93145,0.13391 0.99805,0.59765 0.0666,0.53323 0.33273,0.82365 0.79883,0.87305 4.59437,-5.25127 8.45644,-10.46064 11.58594,-15.62891 4.06169,-6.80682 6.09179,-12.4692 6.09179,-16.98633 0,-4.44763 -1.59688,-7.44614 -4.79297,-8.99609 -0.99878,-0.49305 -3.96137,-1.11464 -8.88867,-1.86523 -3.19608,-0.50755 -4.79492,-1.69983 -4.79492,-3.57618 0,-5.49004 6.55852,-14.60674 19.67578,-27.35351 l -3.0957,-0.50781 -1.79883,2.90625 -1.99609,0.47461 0.89843,-1.8711 0.59961,-0.30859 1.59766,-2.00586 1.09766,-0.58203 0.90039,-2.4961 -4.59571,0.73438 c 1.59805,-4.02013 2.39844,-6.30928 2.39844,-6.86524 0,-0.48646 -0.16707,-0.95025 -0.5,-1.39257 -0.46609,-0.67485 -0.76526,-1.09478 -0.89844,-1.25782 z m -4.89453,15.22266 -2.49609,3.14648 -1.59961,0.54493 0.79883,-1.31641 0.40039,-0.13477 1.29883,-1.38281 1.59765,-0.85742 z m -33.85937,3.32031 c -1.33171,1.07996 -2.76346,2.12561 -4.29492,3.13477 l -1.49805,2.49219 0.40039,0.69726 -0.29883,0.93555 0.29883,2.71289 -0.89844,3.43359 -1.59765,-4.875 0.69921,-1.59375 c -0.46609,-0.95282 -0.80024,-1.70834 -1,-2.26562 -3.79536,2.96322 -6.65887,5.15659 -8.58984,6.58008 0.13317,18.85698 1.63098,41.38307 4.49414,67.57812 0.59927,-0.82998 1.23259,-1.56672 1.89844,-2.21094 l 1.39844,0.77344 c 0.59926,-1.52491 1.16458,-2.69079 1.69726,-3.49805 l -1.09765,-3.16992 1.69726,-4.12304 1.09961,1.60546 -0.40039,1.07422 0.30078,1.87891 c 1.13195,1.14254 1.99644,1.95881 2.5957,2.44922 l 2.69727,-2.17188 c -0.0666,-0.53322 -0.20064,-1.98157 -0.40039,-4.3457 -0.19976,-1.73867 -0.29883,-3.19945 -0.29883,-4.38086 0,-0.48645 0.0991,-1.1459 0.29883,-1.97852 0.19975,-0.90211 0.30078,-1.49155 0.30078,-1.76953 0.13317,-1.01837 0.19922,-2.88152 0.19922,-5.59179 0,-15.7057 0.96551,-32.57482 2.89648,-50.60743 l -0.29882,0.20508 c -0.13316,0.0455 -0.23419,-0.1292 -0.30079,-0.52344 0,-0.48645 -0.13209,-0.61465 -0.39843,-0.38476 0,-0.55595 -0.30113,-0.86991 -0.90039,-0.94336 -0.5327,-0.0962 -0.76582,-0.46902 -0.69922,-1.11719 z m 29.26562,2.73047 -1.79883,2.28125 -1.09765,0.375 0.49805,-0.90039 0.30078,-0.10156 0.99804,-1.07031 1.09961,-0.58399 z m 130.73828,3.01563 1,0.80664 -0.19921,0.79687 0.59765,1.77735 -0.39844,2.63671 -1.79882,-3.24218 0.79882,-2.77539 z m -170.78906,7.00586 0.69922,1.01171 -0.30078,0.62305 0.30078,1.77344 -0.69922,2.42773 -1.09961,-3.27343 1.09961,-2.5625 z m 113.66797,5.74609 c -0.002,0.0554 -0.004,0.11626 -0.006,0.17187 l -0.20117,0.0762 0.20703,-0.24805 z m -110.67188,2.29883 0.39844,0.59375 -0.0996,0.34765 0.0996,1.11133 -0.39844,1.38867 -0.5996,-1.98632 0.5996,-1.45508 z m 110.36329,0.27734 -0.69727,1.17578 -0.5,0.16992 -1.29883,1.17383 -1.79687,0.7168 2.39648,-2.90234 1.89649,-0.33399 z m -71.81055,33.16016 -1.29883,2.63281 -1.19922,0.82617 0.30078,-0.93555 c 0.99878,-1.03582 1.73117,-1.87789 2.19727,-2.52343 z m -35.35742,4.98047 0.69922,0.9082 -0.29883,0.72656 0.29883,1.77344 -0.69922,2.32422 -0.99805,-3.30664 0.99805,-2.42578 z m 32.46094,1.42968 -1.99805,2.76563 -1.39844,0.68555 0.5,-1.10743 0.39844,-0.24023 1.09961,-1.20898 1.39844,-0.89454 z"
         id="path4305"
         inkscape:connector-curvature="0" />
    </clipPath>
  </defs>
  <sodipodi:namedview
     id="base"
     pagecolor="#ffffff"
     bordercolor="#666666"
     borderopacity="1.0"
     inkscape:pageopacity="0.0"
     inkscape:pageshadow="2"
     inkscape:zoom="1.4142136"
     inkscape:cx="284.45293"
     inkscape:cy="510.07844"
     inkscape:document-units="px"
     inkscape:current-layer="layer1"
     showgrid="false"
     inkscape:snap-grids="false"
     inkscape:window-width="1600"
     inkscape:window-height="836"
     inkscape:window-x="0"
     inkscape:window-y="27"
     inkscape:window-maximized="1" />
  <metadata
     id="metadata7">
    <rdf:RDF>
      <cc:Work
         rdf:about="">
        <dc:format>image/svg+xml</dc:format>
        <dc:type
           rdf:resource="http://purl.org/dc/dcmitype/StillImage" />
        <dc:title />
      </cc:Work>
    </rdf:RDF>
  </metadata>
  <g
     inkscape:label="Layer 1"
     inkscape:groupmode="layer"
     id="layer1">
    <rect
       style="color:#000000;display:inline;overflow:visible;visibility:visible;fill:none;fill-opacity:1;fill-rule:evenodd;stroke:none;stroke-width:0.87455952;stroke-linecap:butt;stroke-linejoin:miter;stroke-miterlimit:4;stroke-dasharray:none;stroke-dashoffset:0;stroke-opacity:1;marker:none;marker-start:none;marker-mid:none;marker-end:none;enable-background:accumulate"
       id="rect4307"
       width="463.98746"
       height="352.97171"
       x="149.84392"
       y="360.04193"
       inkscape:export-xdpi="155.17999"
       inkscape:export-ydpi="155.17999" />
    <path
       id="path4291"
       d="m 559.47656,392.98633 c -2.75704,-0.0634 -5.90407,0.50754 -9.4414,1.71484 -5.59316,1.90896 -11.51835,5.18231 -17.77735,9.82031 -5.85949,4.29318 -11.18633,9.13451 -15.98047,14.52344 -0.12819,0.14781 -0.18792,0.21017 -0.30468,0.34375 l -0.59375,-0.0371 0.25586,0.41992 c -0.75322,0.85231 -1.30044,1.44615 -1.45508,1.55274 l 0,0.99219 -0.19922,0.11914 0.28515,1.39257 -0.48632,1.17774 -0.0625,0.1543 -0.0371,-0.0156 -0.29883,-0.52344 -4.69336,1.91407 -3.69727,3.86718 2.39844,-4.67382 2.39649,-2.07032 -0.0996,-0.27734 -2.09766,-0.95313 -1.39844,-2.23242 4.69532,0.79492 0.49804,1.39258 0.69922,-0.65429 0,-4.2754 1.29883,-0.33789 -0.29883,-0.41992 -1.99805,-0.98437 -1.39843,-2.33789 4.59375,0.93359 0.79882,2.33398 1.29883,-0.33984 -2.09765,-3.87109 c -3.5956,-1.4136 -7.78986,-1.30226 -12.58399,0.33398 -10.98654,3.74974 -20.77575,12.47647 -29.36523,26.17969 -1.31165,2.09486 -2.50584,4.1697 -3.60742,6.22852 -0.55021,-3.01792 -1.54431,-5.70222 -2.98438,-8.04493 l -0.99805,1.48828 -4.89453,-0.31054 1,1.64062 -2.39843,1.44336 0.30078,1.46094 1.59765,0.18359 0.59961,1.98633 -1.19922,0.0957 -0.19921,-0.45312 -1.39844,-0.56445 -0.29883,-0.52344 -4.69531,1.91406 -3.69532,3.86719 2.39649,-4.67383 2.39844,-2.07031 -0.0996,-0.27735 -2.09766,-0.95312 -1.39844,-2.23242 4.69336,0.79492 0.5,1.39258 0.69922,-0.6543 0,-4.27539 1.29883,-0.33789 -0.30078,-0.41992 -1.99805,-0.98438 -1.39648,-2.33789 4.59375,0.9336 0.79883,2.33398 1.29882,-0.33984 -2.09765,-3.8711 c -3.5956,-1.4136 -7.78985,-1.30227 -12.58399,0.33399 -10.98654,3.74972 -20.77575,12.47646 -29.36523,26.17968 -8.18998,13.08041 -12.28516,25.45778 -12.28516,37.13282 0,1.37002 0.0668,2.66689 0.18555,3.90429 -3.03155,2.31241 -5.74053,4.48791 -8.07617,6.50391 0.0666,-8.15355 0.60083,-17.82191 1.59961,-29.00391 0.93219,-9.76937 1.8977,-19.54969 2.89648,-29.34179 -0.79902,0.55068 -1.69848,1.62111 -2.69726,3.21289 -0.99879,1.52228 -1.86523,2.54821 -2.59766,3.07617 l 0.20117,0.24414 -0.30078,0.93555 0.40039,2.36523 -0.79883,3.19141 -1.69922,-4.31836 0.79883,-1.94141 c -1.39829,-0.0787 -2.3638,-0.0275 -2.89648,0.1543 -0.4661,0.15909 -1.13049,0.80423 -1.9961,1.93359 l -1.79882,2.49024 0.30078,0.41797 -0.20118,0.69336 0.30079,1.77539 -0.59961,2.39257 -1.29883,-3.20507 0.40039,-0.97071 -0.0996,0.13867 c -0.39951,0.27536 -0.79971,0.48084 -1.19922,0.61719 -0.33292,0.1136 -0.83219,0.18042 -1.49805,0.19922 -0.0148,4.2e-4 -0.0244,0.001 -0.0391,0.002 0.0137,-0.034 0.0252,-0.0738 0.0391,-0.10742 l -0.1914,0.11914 c -0.56059,0.026 -1.01013,0.0843 -1.30664,0.18555 -0.26635,0.0909 -0.5325,0.21655 -0.79883,0.37695 -0.0128,0.25381 -0.0211,0.51466 -0.0332,0.76953 l -0.26758,0.16602 c 0.3329,-1.85099 0.53301,-3.27389 0.59961,-4.26953 0.79902,-3.88641 1.53141,-6.81273 2.19726,-8.77735 -6.259,4.15155 -10.98555,7.25852 -14.18164,9.32227 l -1.29883,-0.80664 c -9.05558,6.63489 -16.08034,12.33353 -21.07421,17.0957 -2.79658,2.83082 -4.86166,4.99526 -6.19336,6.49219 l 0,0.51953 1.39843,-0.47656 c -0.26634,0.71635 -0.66458,1.61789 -1.19726,2.70312 0.19975,0.48778 0.49892,1.63583 0.89843,3.44532 0.39952,1.39252 0.83274,2.42671 1.29883,3.10156 l 0.0996,-0.24414 c 0.4661,-0.15908 1.19849,-0.7552 2.19727,-1.79102 l 1.99609,-0.99414 -2.89648,3.59375 -1.59766,0.44141 c -0.66585,1.68664 -1.16513,2.96959 -1.49805,3.84765 l 0,3.12696 c 1.66462,-1.47157 2.89629,-2.58654 3.69532,-3.34571 -0.13318,3.31169 -0.13318,6.57611 0,9.79688 l -3.49414,3.9043 c 0.13316,1.8309 0.19921,3.23215 0.19921,4.20507 0.86561,0.608 1.598,1.01805 2.19727,1.23047 -0.93219,2.54198 -1.59854,4.47326 -1.99805,5.79102 1.73121,-1.63327 2.92985,-2.77179 3.59571,-3.41602 0,2.71028 0.69937,11.29574 2.09765,25.75977 0.99878,-3.95459 1.7642,-6.92541 2.29688,-8.91406 0.13317,1.34443 0.39932,3.339 0.79883,5.98242 1.86438,-2.0262 3.29614,-3.55793 4.29492,-4.59375 l 0.0996,1.73828 c 1.46487,-1.40339 2.59746,-2.45095 3.39648,-3.14063 -0.3995,-13.41503 -0.16639,-23.08334 0.69922,-29.00781 3.92852,-3.07816 9.58757,-7.23396 16.97852,-12.46679 0,-0.76443 0.10102,-2.36198 0.30078,-4.79297 l -1.39844,1.72851 -2.09766,0.61133 0.79883,-1.41992 0.59961,-0.20508 1.59766,-1.58789 0.59961,-0.30859 c 0,-1.66787 0.16512,-3.84439 0.49804,-6.5293 -2.79657,1.92739 -5.52604,3.8329 -8.18945,5.71484 l -0.0996,-1.84179 c -2.79657,2.20537 -5.59405,4.51388 -8.39062,6.92773 l 0.80078,-9.54883 c 4.66096,-3.25866 8.15585,-5.91269 10.48633,-7.95898 2.73721,-1.92788 5.751,-3.94979 8.96679,-6.04102 -0.1152,3.59233 -0.17773,7.27488 -0.17773,11.06836 0,10.42413 0.60029,25.95972 1.79883,46.60742 l 1.99609,-2.45312 2.69727,-0.50391 -0.89844,1.5586 -0.69922,0.23828 -1.89844,1.79492 -1.09765,0.47851 0.29882,3.85938 0.19922,-1.00781 c 0.33293,1.55424 0.63405,2.63424 0.90039,3.23828 8.31162,-8.26515 16.32686,-15.42204 24.05274,-21.49024 0.96419,1.27896 2.0968,2.36911 3.41211,3.25586 l -0.99805,-1.53515 4.69336,0.79492 0.90039,2.71484 c 3.52901,0.81088 7.32307,0.52494 11.38477,-0.86133 10.52044,-3.59065 20.14258,-12.36511 28.86523,-26.32226 1.34149,-2.14917 2.56223,-4.26805 3.6875,-6.36328 0.86767,5.84304 3.19683,10.05511 7,12.61914 l -1,-1.53711 4.69531,0.79687 0.89844,2.71485 c 3.52901,0.81087 7.32503,0.52494 11.38672,-0.86133 10.52045,-3.59065 20.14063,-12.36511 28.86328,-26.32227 7.34903,-11.77373 11.45044,-22.73755 12.31055,-32.89257 0.5735,11.72363 1.86088,25.97934 3.87109,42.79687 0.79902,-1.03715 1.43039,-1.8079 1.89649,-2.31445 l 1.29882,0.49414 -0.39843,-0.38477 0.19921,-0.79687 -0.5996,-2.40235 0.5996,-3.33203 1.89649,3.62696 1.5,-3.11719 c 0.66585,0.46768 1.59639,1.19105 2.79492,2.17187 1.19853,-1.03451 2.09799,-1.8269 2.69727,-2.3789 -0.26633,-3.73128 -0.4334,-6.52334 -0.5,-8.37696 5.26022,0.22001 11.38746,0.17832 18.3789,-0.12304 3.06292,-0.14196 9.25426,-0.48263 18.57617,-1.02344 l -0.19921,-0.97461 -0.0996,0.0332 -0.69922,-0.49023 -2.79688,0.0156 -2.59765,-1.50976 c 3.52901,-0.718 5.52804,-1.15733 5.99414,-1.31641 -0.59927,-2.50574 -0.96644,-4.43096 -1.09961,-5.77539 l 1.69726,-0.0586 c -0.13317,-2.03938 -0.26526,-3.55773 -0.39843,-4.55469 -8.78924,-0.12746 -17.67898,-1.02009 -26.66797,-2.67773 13.51678,-14.34251 20.27539,-27.35036 20.27539,-39.0254 0,-5.62903 -2.06313,-9.26726 -6.19141,-10.91601 -1.37332,-0.49552 -2.88874,-0.76273 -4.54297,-0.80078 z m -9.18554,19.38086 c 2.35961,-0.11474 3.54101,1.21026 3.54101,3.97265 0,4.37815 -4.36133,10.87047 -13.08398,19.47657 0,-2.98826 0.49926,-9.72584 1.49804,-20.21289 2.06414,-1.26044 3.82811,-2.14066 5.29297,-2.64063 1.04872,-0.35793 1.96542,-0.55746 2.75196,-0.5957 z m -24.42579,4.55273 -3.14062,4.09766 c -0.24683,-0.58402 -0.52081,-1.14728 -0.8125,-1.69727 l 0.95703,-0.96093 2.99609,-1.43946 z m -23.66992,6.20117 3.09571,0.50782 0.5996,1.88086 -1.19921,0.19921 -0.19922,-0.45312 -1.39844,-0.66797 -0.89844,-1.4668 z m 24.56836,0.16211 -1.99609,2.66407 -0.53906,0.15039 c -0.0606,-0.32395 -0.13422,-0.63896 -0.20508,-0.95508 0.32113,-0.23717 0.72816,-0.60557 1.24218,-1.13867 l 1.49805,-0.72071 z m -10.7207,1.34571 0.041,0.13476 -0.10546,0.11719 c 0.0452,0.0632 0.1097,0.10995 0.18554,0.14844 l 0.3125,1.03515 -1.19726,0.0977 -0.20118,-0.45313 -0.60351,-0.24414 c 0.42281,-0.175 0.94363,-0.45152 1.56836,-0.83593 z m -5.25977,4.10937 2.19727,0.39649 0.5,1.39257 -0.89844,0.0996 -0.0996,-0.38281 -1,-0.38867 -0.69922,-1.11719 z m -9.94922,5.56055 c 1.99756,-0.014 3.68333,0.63519 5.05664,1.94726 2.19732,2.02982 3.29493,5.05918 3.29493,9.08985 0,6.32398 -2.16415,13.04028 -6.49219,20.14648 -4.59437,7.54459 -9.85322,12.32703 -15.7793,14.34961 -3.86194,1.31809 -6.92556,0.90391 -9.18945,-1.24219 -2.13072,-1.98305 -3.19531,-4.98886 -3.19531,-9.01953 0,-6.32397 2.19718,-13.05075 6.59179,-20.17969 4.59438,-7.54457 9.85323,-12.32702 15.7793,-14.3496 1.42326,-0.48577 2.73506,-0.73381 3.93359,-0.74219 z m -54.17187,7.77734 3.0957,0.50586 0.59961,1.88086 -1.19726,0.19922 -0.20118,-0.45313 -1.39843,-0.66796 -0.89844,-1.46485 z m 8.58984,5.61524 2.19727,0.39648 0.5,1.39258 -0.90039,0.0996 -0.0996,-0.38281 -0.99805,-0.38868 -0.69922,-1.11718 z m -9.95117,5.56054 c 1.99755,-0.014 3.68333,0.63519 5.05664,1.94727 2.19732,2.02981 3.29688,5.05918 3.29688,9.08984 0,6.32398 -2.16416,13.04029 -6.49219,20.14649 -4.59437,7.54458 -9.85517,12.32702 -15.78125,14.34961 -3.86193,1.31808 -6.92361,0.90586 -9.1875,-1.24024 -2.13073,-1.98305 -3.19727,-4.99082 -3.19727,-9.02148 0,-6.32398 2.19718,-13.05076 6.5918,-20.17969 4.59437,-7.54457 9.85517,-12.32702 15.78125,-14.34961 1.42326,-0.48576 2.73311,-0.7338 3.93164,-0.74219 z m 119.91602,3.71289 1.19922,1.25782 -1.09961,0.48046 -0.39844,-0.28124 -1.59766,0.0234 -1.39843,-0.77343 3.29492,-0.70704 z m -35.05664,2.47852 1.29882,2.37109 -0.69921,2.01172 -0.69922,-0.5957 0.0996,-0.55469 -0.29883,-1.35742 0.29883,-1.875 z m 3.5957,3.25586 1.49805,3.0332 -0.79883,2.46094 -0.89844,-0.73633 0.19922,-0.69336 -0.40039,-1.74023 0.40039,-2.32422 z m -143.02539,1.69726 0.79883,0.87305 -0.19922,0.69336 0.30078,1.77539 -0.59961,2.28906 -1.29883,-3.20507 0.99805,-2.42579 z m -75.60742,8.8125 c -6.32559,3.75731 -11.75151,7.10383 -16.2793,10.03907 l -1.39844,-0.77344 c -10.18752,6.88225 -18.27686,12.94546 -24.26953,18.1875 -2.45281,2.27714 -4.26002,4.00958 -5.73242,5.46094 0.56345,-6.57614 1.19907,-13.58113 1.93555,-21.15821 -0.73244,0.52796 -1.62996,1.56437 -2.69532,3.10938 -0.99877,1.52229 -1.83219,2.53579 -2.49804,3.04101 l 0,0.10547 -0.29883,0.93555 0.29883,2.60937 -0.89844,3.32813 -1.59766,-4.66602 0.69922,-1.69726 c -0.99878,-0.0761 -1.8322,-7e-4 -2.49805,0.22656 -0.79901,0.27271 -1.76453,1.29604 -2.89648,3.07227 -1.06537,1.68399 -2.22902,2.74204 -3.49414,3.17382 -0.33292,0.11361 -0.83415,0.18042 -1.5,0.19922 -0.66585,0.0188 -1.16512,0.0856 -1.49805,0.19922 -0.26634,0.0909 -0.53249,0.21656 -0.79883,0.37696 -0.26634,6.83184 -0.39843,13.51246 -0.39843,20.04492 0,3.26622 0.033,6.52212 0.0996,9.76562 l -9.08985,7.0625 c 0.4661,-6.76104 1.23347,-15.22246 2.29883,-25.38476 -0.86561,0.57341 -1.76507,1.08973 -2.69726,1.54687 l 0,-1.98047 c 0.0666,-0.99564 0.0996,-1.70217 0.0996,-2.11914 -1.93097,1.2845 -3.36272,2.2582 -4.29492,2.92383 -1.19852,1.86844 -2.09799,3.2869 -2.69726,4.25586 -0.39952,-0.83656 -0.79777,-1.74124 -1.19727,-2.7168 -1.92807,1.48454 -2.94323,2.23257 -4.39062,3.33008 l 0.19531,-2.10742 -0.89844,0.30664 -2.29687,2.13867 -2.99805,1.23242 4.0957,-4.9414 2.19727,-0.4375 c 0,-0.55596 -0.066,-1.40311 -0.19922,-2.53906 -0.0666,-1.22818 -0.0996,-2.15386 -0.0996,-2.7793 0,-0.55596 0.033,-1.08847 0.0996,-1.59766 -1.19853,0.68705 -2.33112,1.28061 -3.39648,1.7832 0.33292,-1.36451 0.59907,-2.53229 0.79882,-3.5039 -11.25288,7.31535 -24.73513,17.58077 -40.44921,30.79687 l 1.09765,2.33594 c -0.4661,3.00834 -0.66621,5.33533 -0.59961,6.98047 1.13194,0.23911 1.96537,0.40578 2.49805,0.50195 -0.86561,1.33785 -1.56498,2.37552 -2.09766,3.11328 l -0.59961,5.52149 c 3.72878,-3.35746 7.59084,-6.76061 11.58594,-10.20899 0.39951,12.44211 1.76522,28.72529 4.0957,48.84766 l 1.89649,-2.10742 1.39844,0.66992 0.0996,-0.13867 -1.19727,-3.24024 1.59766,-3.56836 0.99804,1.32813 -0.39843,0.96875 0.29882,1.98438 1.79883,-3.42969 c 1.13195,1.07304 2.06248,1.86836 2.79492,2.38281 1.13195,-0.80329 2.03142,-1.45765 2.69727,-1.96289 -0.39951,-3.89431 -0.59961,-6.9199 -0.59961,-9.07422 0,0.13899 0.13405,-0.84494 0.40039,-2.95117 0.13317,-0.94887 0.19922,-2.67399 0.19922,-5.17578 0,-14.17684 0.63332,-26.93497 1.89844,-38.27735 2.62725,-1.70317 5.64283,-3.51747 9.02734,-5.4375 0.088,8.84258 0.43039,17.83979 1.06055,27.01172 -0.86561,0.92088 -2.09922,2.27986 -3.69727,4.07617 0.53268,1.69454 0.89985,2.9937 1.09961,3.89844 1.19853,0.35538 2.2981,0.60638 3.29688,0.75196 -0.59928,2.49784 -1.0325,4.34798 -1.29883,5.55078 0.73243,-0.59746 1.29775,-1.10326 1.69726,-1.51758 0.66586,6.79166 1.39826,13.56043 2.19727,20.30664 0.46611,-0.64553 1.09942,-1.34826 1.89844,-2.10742 l 1.39843,0.66992 c 1.3317,-2.67833 2.36327,-4.69866 3.09571,-6.06055 1.19853,0.98082 2.13103,1.77418 2.79687,2.38086 1.13196,-0.94229 2.02947,-1.63067 2.69531,-2.06641 -0.33292,-3.84754 -0.49804,-7.09164 -0.49804,-9.73242 0,-0.27798 0.066,-0.68293 0.19922,-1.21484 0.13316,-0.53191 0.19921,-0.86882 0.19921,-1.00781 0.13318,-1.08786 0.20118,-2.91699 0.20118,-5.48828 l 0,-7.81836 c 4.59437,-3.37492 8.02321,-5.9341 10.28711,-7.67969 0.59926,10.42809 1.06551,18.26062 1.39843,23.49805 l 0.29883,-0.10157 2.69727,-10.92773 c 0.33292,3.63905 0.63209,6.3153 0.89844,8.03125 1.26511,-1.4047 2.23063,-2.46402 2.89648,-3.17774 l -1.09961,-3.37695 1.5,-3.42969 0.99805,1.32618 -0.30078,0.9375 c 0.19975,1.3217 0.30078,2.15448 0.30078,2.50195 0,0.20849 -0.033,0.39493 -0.0996,0.55664 l 0.99804,-1.17578 c 0.0666,1.01969 0.0996,1.80733 0.0996,2.36328 1.7978,-1.7255 3.16351,-3.02432 4.09571,-3.89844 -0.10097,-10.55683 0.77949,-26.78976 2.63086,-48.64062 l 0.26562,-0.0898 c -0.19975,0.55464 -0.30078,1.56015 -0.30078,3.01953 -0.0666,1.41261 -0.19868,2.36251 -0.39844,2.84766 0.66586,0.88465 1.19815,1.53548 1.59766,1.95508 l 1.89844,-2.31445 2.09765,-0.4043 -0.69922,1.17773 -0.59961,0.20508 -1.49804,1.34375 -0.89844,0.41211 0.29883,0.31445 -2.09766,4.78125 0,3.12696 c 2.13072,-1.70014 4.3279,-3.56237 6.5918,-5.58594 0,3.19674 0.13405,6.27925 0.40039,9.24609 -1.19853,1.243 -2.26507,2.37167 -3.19727,3.38477 0,0.41697 0.033,1.10059 0.0996,2.05078 l 0,2.1875 c 0.73244,0.44496 1.56586,0.82161 2.49805,1.12891 -1.06537,2.65692 -1.83078,4.62159 -2.29688,5.89257 0.9322,-0.73512 2.16386,-1.81607 3.69532,-3.24218 0.53268,6.21166 1.19902,12.30923 1.99804,18.29101 l -1.19921,1.13867 c 0.33292,0.7898 0.66512,1.37132 0.99804,1.74415 -0.26633,0.57736 -0.56551,1.40759 -0.89843,2.49414 0.73243,0.16698 1.33077,0.20677 1.79687,0.11718 l 0.10156,0.38282 c -1.39828,1.93662 -2.09765,4.26042 -2.09765,6.9707 3.92852,-3.9121 7.62351,-7.43297 11.08593,-10.56055 l 0.40039,0.17774 c 1.19853,-0.82603 2.09604,-1.41234 2.69532,-1.75586 l -0.0996,-1.11133 2.99609,-2.58789 c 5.12705,-4.39066 10.8541,-8.5334 17.17969,-12.42969 0.26635,-1.13331 0.49946,-2.01258 0.69922,-2.63672 l -1.19922,-1.1543 1.39844,-0.99804 0.0996,-1.70117 -0.49805,0.16992 -2.19727,2 -2.89648,1.19726 3.89453,-4.66406 1.79687,-0.40625 c 10e-6,-0.55595 0.068,-1.27296 0.20118,-2.15234 -1.26512,0.84875 -2.19761,1.44554 -2.79688,1.78906 0.26634,-1.27231 0.49947,-2.29157 0.69922,-3.05469 -6.52533,4.65942 -12.98477,9.74824 -19.37695,15.26563 0,-7.2969 0.16707,-13.6779 0.5,-19.14258 7.05802,-5.18869 13.61654,-9.75484 19.67578,-13.69922 0.19976,-4.5853 0.53195,-8.76432 0.99805,-12.53711 -3.19609,2.06375 -6.25775,4.08184 -9.1875,6.05469 l -0.10157,-1.8418 c -4.59437,3.58341 -8.05624,6.25903 -10.38672,8.02735 0.39952,-4.30602 0.69869,-7.22245 0.89844,-8.75 6.12584,-4.45357 13.28464,-9.18992 21.47461,-14.20899 0.26634,-1.27231 0.79864,-3.1218 1.59766,-5.54883 -1.26512,0.70977 -2.23064,1.28301 -2.89649,1.71875 0.39952,-1.10927 0.86576,-2.31175 1.39844,-3.60547 l -1.29883,1.27735 -1.79687,0.7168 2.39648,-2.90235 1.19922,-0.20117 c 0.26632,-0.85533 0.43145,-2.12777 0.49805,-3.81836 0.0666,-1.69059 0.26668,-2.97545 0.59961,-3.85352 z m 39.25195,7.24414 -1.99609,2.14063 -1.19922,0.20117 0.5,-0.90039 0.39843,-0.13672 0.99805,-0.86133 1.29883,-0.44336 z m -4.79297,0.69727 -2.79687,3.03906 -1.79883,0.30078 0.79883,-1.31445 0.5,-0.0664 1.49804,-1.34571 1.79883,-0.61328 z m 123.54883,0.88477 2.69531,0.43554 0.5,1.70508 -0.99805,0.13281 -0.20117,-0.45312 -1.19726,-0.5293 -0.79883,-1.29101 z m -5.99414,4.54687 4.69531,0.79492 0.99805,2.89063 -1.89649,0.23047 -0.30078,-0.73047 -2.09765,-0.84766 -1.39844,-2.33789 z m 6.99219,2.41016 2.69726,0.43359 0.49805,1.70508 -0.99805,0.0293 -0.19922,-0.34961 -1.19922,-0.5293 -0.79882,-1.28906 z m -212.93946,10.44336 0.69922,0.9082 -0.29883,0.62305 0.29883,1.66992 -0.69922,2.32422 -1.09765,-3.16992 1.09765,-2.35547 z m 156.40821,1.55273 2.69726,0.43555 0.5,1.70508 -1,0.13281 -0.19922,-0.45313 -1.19922,-0.52929 -0.79882,-1.29102 z m -138.5293,4.125 -1.09961,1.93945 -0.79883,0.27149 -2.19726,2.00195 -2.89649,1.19531 3.89453,-4.76757 3.09766,-0.64063 z m 134.80664,0.80664 2.42383,0.41016 1,2.89062 -1.89844,0.23242 -0.29883,-0.73242 -2.09765,-0.84765 -0.54688,-0.91211 c 0.47455,-0.35411 0.94569,-0.69542 1.41797,-1.04102 z m 4.72266,2.02539 2.69531,0.4336 0.5,1.70703 -0.99805,0.0273 -0.20117,-0.34961 -1.19727,-0.52929 -0.79882,-1.28907 z m -188.26954,7.75781 0.99805,1.32618 -0.29883,0.93554 0.29883,2.60938 -0.89844,3.33008 -1.59765,-4.66797 1.49804,-3.53321 z m -3.34765,0.34961 c -0.34892,0.26399 -0.77675,0.59217 -1.0957,0.83204 -0.0179,-0.023 -0.0348,-0.0412 -0.0527,-0.0645 l 1.14844,-0.76758 z m -8.83789,0.47266 -0.79883,1.41992 -0.69922,0.23828 -1.59765,1.48438 -2.09766,0.81836 2.89648,-3.38477 2.29688,-0.57617 z m 1.99804,2.23633 -0.5,0.90039 -0.40039,0.13672 -0.99804,0.86133 -1.29883,0.54882 1.69922,-2.14453 1.49804,-0.30273 z m 15.18165,1.80273 0.69726,0.90821 -0.19922,0.69336 0.19922,1.70507 -0.59765,2.18555 -1.09961,-3.06641 1,-2.42578 z m 119.15234,3.74024 0.59961,0.3164 -0.0996,0.45118 0.30078,0.93945 -0.20117,1.42383 -1.09766,-1.39649 0.49805,-1.73437 z m 29.96484,0.61523 -0.20117,0.69336 0.0996,-0.66016 0.10156,-0.0332 z m -150.8164,2.27149 0.40039,0.48828 c -0.0666,0.50918 -0.0666,0.99525 0,1.45898 l -0.40039,1.28321 -0.59961,-1.88086 0.59961,-1.34961 z m 118.85547,0.81836 0.79882,0.45703 -0.0996,0.55468 0.49805,1.39258 -0.39844,2.11719 -1.49804,-2.09375 0.69922,-2.42773 z m -50.53907,14.64257 -0.59961,1.14258 -0.49804,0.16992 -1.29883,1.17383 -1.79883,0.7168 2.39844,-2.79883 1.79687,-0.4043 z m -40.75,3.69141 0.69922,0.80469 -0.29883,0.72656 0.29883,1.66992 -0.69922,2.32422 -1.09765,-3.16992 1.09765,-2.35547 z m -29.86328,25.41211 0.69922,0.9082 -0.19922,0.69336 0.19922,1.8086 -0.59961,2.28906 -1.09766,-3.27344 0.99805,-2.42578 z m -25.06836,0.42578 0.69922,1.01172 -0.20117,0.69336 0.20117,1.91211 -0.59961,2.49805 -1.19922,-3.55079 1.09961,-2.56445 z m -3.39648,5.32813 0.59961,0.73437 -0.20117,0.58984 0.20117,1.49414 -0.5,1.8379 -0.99805,-2.68164 0.89844,-1.97461 z"
       style="font-style:normal;font-variant:normal;font-weight:normal;font-stretch:normal;font-size:medium;line-height:125%;font-family:'Feast of Flesh BB';-inkscape-font-specification:'Feast of Flesh BB';text-align:center;letter-spacing:0px;word-spacing:0px;text-anchor:middle;fill:#000000;fill-opacity:1;stroke:#000000;stroke-width:12.07900047;stroke-linecap:butt;stroke-linejoin:round;stroke-miterlimit:4;stroke-dasharray:none;stroke-opacity:1"
       inkscape:connector-curvature="0"
       inkscape:export-xdpi="155.17999"
       inkscape:export-ydpi="155.17999" />
    <path
       inkscape:connector-curvature="0"
       id="path4293"
       d="m 516.28125,514.8457 c -3.06291,1.74033 -5.39219,3.64837 -6.99023,5.72266 l -1.19922,-1.78125 -2.89649,1.82422 0.19922,2.32812 -1.09765,3.18946 -1.09961,-4.21094 -3.59375,2.16601 c 0,12.231 1.46479,26.84467 4.39453,43.84375 0.53268,-0.39028 1.16404,-0.91898 1.89648,-1.58593 l 1.39844,0.2539 c 1.39829,-2.0061 2.46287,-3.51683 3.19531,-4.53125 0.79902,0.56122 1.73152,1.00657 2.79688,1.33789 1.19853,-0.68703 2.098,-1.23737 2.69726,-1.65039 -0.39951,-2.08746 -0.59961,-4.31103 -0.59961,-6.67383 0,-0.13898 0.10103,-0.86842 0.30078,-2.1875 0.19976,-1.31907 0.29883,-2.32653 0.29883,-3.02148 0,-8.89526 0.96552,-20.06573 2.89649,-33.51172 -1.7312,0.86884 -2.63067,1.31516 -2.69727,1.33789 0.0666,-1.27362 0.0996,-2.22416 0.0996,-2.84961 z m -26.26758,8.33985 c -2.72999,2.32163 -4.72707,4.25513 -5.99219,5.79883 -0.99878,1.3138 -1.66512,2.30502 -1.99804,2.9746 -0.13317,0.11494 -0.29829,0.20722 -0.49805,0.2754 -0.13317,0.0455 -0.33326,-0.0258 -0.59961,-0.2129 -0.26633,-0.25656 -0.56551,-0.32847 -0.89844,-0.21484 0.26634,-0.0909 -0.73415,0.59684 -2.99804,2.06445 0.26634,-1.75876 0.60049,-3.53953 1,-5.34375 -1.7978,1.30854 -3.13048,2.28483 -3.9961,2.92774 -1.66462,1.74954 -2.76224,3.0627 -3.29492,3.93945 l 0.5,1.18359 -0.5,1.00586 -0.30078,2.91602 -1.49805,3.5332 -0.59765,-5.11132 1.69726,-2.87305 -0.0996,0.0351 c -2.53024,1.41954 -4.46127,2.35604 -5.79297,2.81055 -1.84251,1.25495 -2.91428,2.01771 -4.17773,2.90235 0.57537,-1.40809 1.08114,-2.6811 1.67969,-4.13477 l -2.79688,0.43359 c 0.73244,-2.12633 1.29971,-3.71022 1.69922,-4.75 -0.93219,0.31816 -2.43001,0.72665 -4.49414,1.22266 -1.66463,1.54107 -2.93127,2.70249 -3.79687,3.48437 0,-1.59836 0.033,-2.86096 0.0996,-3.78711 l -1.49805,0.51172 0.10156,0.38282 -0.59961,1.03711 -0.59961,3.12304 -2.09765,3.63477 0.0996,-6.1836 1,-1.27929 -2.79687,0.95508 c -1.26512,0.36229 -2.19761,0.64508 -2.79687,0.84961 -5.12707,15.71822 -10.15474,33.59095 -15.08204,53.61914 -0.53268,-6.21167 -0.8979,-13.62554 -1.09765,-22.24414 -0.19976,-7.5067 -0.36684,-15.02527 -0.5,-22.55469 -0.53268,0.45978 -1.43215,1.80823 -2.69727,4.04687 -1.13194,1.9152 -2.13049,3.02098 -2.99609,3.31641 -0.19976,0.0682 -0.43288,0.11336 -0.69922,0.13476 l 0.0996,0.0703 -0.19922,0.79687 0.59961,1.77735 -0.30078,2.5 -1.89649,-3.10547 0.59961,-2.08203 c -0.33293,0.0441 -0.56605,0.0893 -0.69922,0.13476 -1.06536,0.36361 -2.16492,1.60678 -3.29687,3.73047 -1.13195,2.0542 -2.29756,3.28625 -3.49609,3.69531 -0.26634,0.0909 -0.63156,0.18191 -1.09766,0.27149 -0.46609,0.0896 -0.83327,0.17863 -1.09961,0.26953 -0.46609,0.15908 -0.93234,0.42345 -1.39844,0.79101 0.46811,6.05827 1.2399,12.61319 2.25196,19.56446 -2.96324,1.98026 -4.78549,3.19167 -4.84766,3.21289 -1.53146,-10.94386 -2.3979,-21.69923 -2.59766,-32.26367 -2.72999,2.32163 -4.72706,4.25513 -5.99218,5.79882 -0.99878,1.31381 -1.66512,2.30503 -1.99805,2.97461 -0.13317,0.11494 -0.29829,0.20722 -0.49805,0.27539 -0.13317,0.0455 -0.33327,-0.0258 -0.59961,-0.21289 -0.26634,-0.25656 -0.56551,-0.32847 -0.89843,-0.21484 0.26633,-0.0909 -0.73416,0.59879 -2.99805,2.06641 0.26634,-1.75877 0.60049,-3.54149 1,-5.34571 -1.7978,1.30854 -3.13049,2.28483 -3.9961,2.92774 -1.66462,1.74954 -2.76224,3.0627 -3.29492,3.93945 l 0.49805,1.18359 -0.49805,1.00586 -0.30078,2.91602 -1.49805,3.53515 -0.5996,-5.11328 1.69921,-2.87109 -0.0996,0.0332 c -2.53024,1.41954 -4.46126,2.35604 -5.79296,2.81055 -2.86316,1.95011 -5.02732,3.45385 -6.49219,4.50977 -1.99756,13.32972 -2.9961,22.11436 -2.9961,26.35351 0,0.69494 0.0991,1.7377 0.29883,3.12891 0.26634,1.36847 0.40039,2.40075 0.40039,3.0957 0,1.11191 -0.26614,2.00166 -0.79883,2.66992 -0.53266,0.66827 -0.83379,1.29242 -0.90039,1.8711 -0.27439,1.8406 -0.48557,3.96221 -0.6582,6.25195 -6.51951,4.9246 -11.57552,8.77338 -14.92187,11.36523 0,-15.35823 1.09761,-32.58521 3.29492,-51.68164 -1.26512,0.70977 -2.26366,1.29349 -2.9961,1.75196 0,-1.38989 0.068,-2.80295 0.20118,-4.23829 -1.7978,1.23904 -3.36362,2.26051 -4.69532,3.0625 -1.39829,2.1451 -2.3638,3.58646 -2.89648,4.32422 -0.59927,-0.90738 -1.06551,-1.75708 -1.39844,-2.54687 l -2.09765,1.44726 0.40039,0.48829 -0.30078,0.93554 0.40039,2.47071 -0.79883,3.1914 -1.69727,-4.32031 0.69727,-1.80274 c -2.59682,1.85922 -4.56088,3.2602 -5.89258,4.20118 0,16.05316 1.29967,34.85957 3.89648,56.41992 -0.26632,1.61977 -0.4334,2.85818 -0.5,3.71484 l 1.19922,-1.45117 1.89649,-0.43945 -0.69922,1.17578 -0.49805,0.17187 -1.29883,1.17188 -0.69922,0.34375 -0.0996,1.70117 1.39844,0.25195 c -0.33292,1.08654 -0.63404,2.12676 -0.90039,3.1211 0.33293,1.62372 0.63405,2.77373 0.90039,3.44726 9.97537,-9.79746 19.18287,-17.86661 27.625,-24.20703 -0.0731,6.98011 -0.18647,12.05097 -0.35937,14.27539 l 0.19922,-0.0684 c 1.06535,-2.8654 1.89878,-4.99101 2.49804,-6.37695 -0.19975,1.94453 0.20044,2.74518 1.19922,2.4043 0.59926,-0.20454 2.2622,-1.8135 4.99219,-4.83008 -0.13317,0.94888 -0.19922,1.73588 -0.19922,2.36133 1.73121,-1.70278 3.0639,-2.9571 3.99609,-3.76172 0.39952,-4.445 1.16494,-10.37015 2.29688,-17.77539 5.72633,-4.94267 9.98663,-8.37729 12.7832,-10.30469 1.46488,5.82402 3.12976,12.03197 4.99414,18.62305 2.53024,-1.97549 4.42825,-3.42356 5.69336,-4.3418 -0.26634,-1.43797 -0.39843,-2.29625 -0.39843,-2.57422 l 1.49804,-0.92773 c 0.19976,-0.69362 0.53196,-1.25826 0.99805,-1.69532 l -1.29883,-1.85156 0.79883,-2.66992 0.79883,0.45703 -0.0996,0.76367 0.5,1.39453 -0.19922,1.42188 c 0.4661,-0.29807 1.06444,-0.53631 1.79687,-0.7168 0.99878,-0.1324 1.59908,-0.2326 1.79883,-0.30078 0.33293,-0.11363 0.63211,-0.28573 0.89844,-0.51562 -1.59804,-7.02946 -2.73063,-12.72462 -3.39649,-17.08399 l 1.99805,-1.30664 c 0.59239,-5.33384 1.00316,-9.02143 1.33203,-11.95508 0.527,3.53319 1.0983,7.13808 1.76368,10.89844 0.79901,4.73088 2.76307,15.00522 5.89257,30.82422 l 0.59961,-0.30859 c 0.59927,-4.1657 1.0325,-7.26599 1.29883,-9.30274 0.79903,3.2715 1.43039,5.73113 1.89649,7.37891 1.53145,-2.12106 3.09727,-4.18466 4.69531,-6.18946 l 0.40039,2.15625 c 1.53145,-1.77358 2.76312,-3.20061 3.69531,-4.2832 -0.26634,-1.57696 -0.46644,-3.17642 -0.59961,-4.79883 l 0.39844,-0.44922 c 0.39951,1.18404 0.83273,2.6343 1.29883,4.35157 l 2.89648,-0.98828 1.39844,-5.89844 c 0.59927,-2.42835 1.23258,-4.38122 1.89844,-5.85938 2.86316,-7.71814 4.89326,-13.51857 6.09179,-17.40234 3.01139,-8.77682 7.29829,-20.06144 12.7793,-33.69531 -1.36759,9.73129 -2.0918,16.53343 -2.0918,20.04101 0,0.69494 0.0991,1.7377 0.29883,3.12891 0.26634,1.36847 0.40039,2.40075 0.40039,3.0957 0,1.11191 -0.26614,2.00166 -0.79883,2.66992 -0.53266,0.66827 -0.83379,1.29047 -0.90039,1.86914 -0.66584,4.46641 -1.03105,10.25605 -1.09765,17.36719 -0.0666,8.918 -0.20064,14.66245 -0.40039,17.23242 l 0.20117,-0.0684 c 1.06536,-2.8654 1.89683,-4.99102 2.49609,-6.37695 -0.19976,1.94453 0.20043,2.74518 1.19922,2.4043 0.59926,-0.20454 2.26415,-1.81545 4.99414,-4.83203 -0.13317,0.94888 -0.20117,1.73783 -0.20117,2.36328 1.73122,-1.70278 3.06391,-2.9571 3.99609,-3.76172 0.39951,-4.445 1.16492,-10.37014 2.29688,-17.77539 5.72632,-4.94266 9.98663,-8.37729 12.7832,-10.30469 1.46487,5.82402 3.12976,12.03001 4.99414,18.62109 2.53024,-1.97548 4.42825,-3.4216 5.69336,-4.33984 -0.26634,-1.43797 -0.39844,-2.29624 -0.39844,-2.57422 l 1.49805,-0.92773 c 0.19976,-0.69362 0.53195,-1.25825 0.99805,-1.69531 l -1.29883,-1.85157 0.79883,-2.66992 0.79883,0.45703 -0.0996,0.76367 0.5,1.39258 -0.19922,1.42383 c 0.46609,-0.29807 1.06443,-0.53631 1.79687,-0.7168 0.99878,-0.1324 1.59907,-0.2326 1.79883,-0.30078 0.33292,-0.11362 0.63209,-0.28572 0.89844,-0.51562 -1.59805,-7.02946 -2.73063,-12.72463 -3.39649,-17.08399 l 1.99805,-1.30664 c 0.66585,-5.99528 1.16512,-10.4746 1.49805,-13.4375 -3.39583,2.27091 -5.12676,3.41868 -5.19336,3.44141 -1.53146,-10.94386 -2.3979,-21.69923 -2.59766,-32.26367 z m 17.37891,1.57422 0.5,0.97656 -0.19922,0.58984 0.0996,1.63281 -0.69922,2.11524 -0.79883,-3.16797 1.09766,-2.14648 z m 2.39844,5.95703 0.49804,0.76758 -0.19922,0.48632 0.0996,1.42578 -0.59961,1.76758 -0.69922,-2.67968 0.9004,-1.76758 z m -27.56641,2.84179 0.79883,0.45703 -0.0996,0.66016 0.49805,1.4961 -0.39844,2.42968 -1.59766,-2.37304 0.79883,-2.66993 z m -29.46484,8.70118 0.29882,1.14843 -0.39843,0.65821 -0.40039,1.9082 -1.19727,2.07617 0.0996,-3.68164 1.59766,-2.10937 z m 13.68359,3.98242 0.39844,0.80078 -0.29883,0.51953 -0.0996,1.59766 -0.89844,1.87109 -0.30078,-2.71289 1.19922,-2.07617 z m 7.68945,2.06445 c 0.73244,5.17057 1.76596,10.79509 3.09766,16.87305 l -7.5918,6.55273 c 0.33292,-3.17137 0.96625,-7.07046 1.89844,-11.69726 l 2.5957,-11.72852 z m -24.96875,3.51953 0.19922,0.76563 -0.29883,0.41406 -0.19922,1.32031 -0.90039,1.45313 0.10157,-2.53516 1.09765,-1.41797 z m -32.16015,10.14258 0.89843,0.83984 -0.0996,0.76368 0.59961,1.77539 -0.40039,2.53515 -1.89648,-3.10547 0.89844,-2.80859 z m -22.07227,1.38281 0.79883,0.45703 -0.0996,0.66016 0.49805,1.49805 -0.39844,2.42968 -1.59961,-2.375 0.80078,-2.66992 z m 122.74805,7.6211 -18.17774,9.85156 1.29883,10.39844 2.39649,-2.38282 2.29882,-0.26172 -1,1.38282 -0.59961,0.0996 -1.79687,1.34375 -1.29883,0.44336 0.40039,2.88672 19.07617,-10.88868 -0.5,-2.64453 -2.49609,-0.91992 1.69727,-3.08203 -0.29883,-1.56445 -0.0996,0.0332 -2.39844,1.86133 -2.99609,0.91797 4.49414,-4.45313 0.59961,-0.0996 -0.59961,-2.92187 z m -138.5293,5.0625 0.39844,0.80078 -0.29883,0.51953 -0.0996,1.59765 -0.89844,1.8711 -0.30078,-2.71289 1.19922,-2.07617 z m 7.68945,2.0664 c 0.73244,5.17057 1.76596,10.7951 3.09766,16.87305 l -7.5918,6.55078 c 0.33293,-3.17137 0.96625,-7.07046 1.89844,-11.69727 l 2.5957,-11.72656 z m 119.6543,6.17383 -0.69922,0.96875 -0.5,0.16992 -1.29687,0.96485 -1.5,0.40625 2.29883,-2.24219 1.69726,-0.26758 z m -163.5,0.86719 0.69922,0.9082 -0.19922,0.69336 0.29883,1.77539 -0.59961,2.28906 -1.29688,-3.20507 1.09766,-2.46094 z m -41.74805,0.38476 c -8.58948,7.17076 -16.44766,15.16902 -23.57226,23.99414 -9.45509,11.70534 -14.18164,21.173 -14.18164,28.4004 0,2.98825 1.19863,5.25414 3.5957,6.79882 1.26511,0.81911 3.66239,1.73846 7.19141,2.75782 1.19853,-0.75654 2.12907,-1.24931 2.79492,-1.47657 0.66585,-0.22726 1.20009,0.009 1.59961,0.70703 0.53268,0.93011 1.2981,1.46771 2.29687,1.61329 l 5.5918,0.80078 c 2.26389,0.6172 3.39648,1.79389 3.39648,3.53125 0,3.40522 -4.12821,9.54031 -12.38476,18.40429 l 4.69531,-1.28906 0.29883,-0.62305 0.59961,-0.31054 1.69726,-1.9336 2.09766,-1.34179 -3.0957,4.28906 -0.89844,0.41016 0.69922,2.05468 c 0.99878,-0.34088 1.76419,-0.56737 2.29687,-0.67968 0.59926,-0.0655 0.93145,0.13391 0.99805,0.59765 0.0666,0.53323 0.33273,0.82365 0.79883,0.87305 4.59437,-5.25127 8.45644,-10.46064 11.58594,-15.62891 4.06169,-6.80682 6.09179,-12.4692 6.09179,-16.98633 0,-4.44763 -1.59688,-7.44614 -4.79297,-8.99609 -0.99878,-0.49305 -3.96137,-1.11464 -8.88867,-1.86523 -3.19608,-0.50755 -4.79492,-1.69983 -4.79492,-3.57618 0,-5.49004 6.55852,-14.60674 19.67578,-27.35351 l -3.0957,-0.50781 -1.79883,2.90625 -1.99609,0.47461 0.89843,-1.8711 0.59961,-0.30859 1.59766,-2.00586 1.09766,-0.58203 0.90039,-2.4961 -4.59571,0.73438 c 1.59805,-4.02013 2.39844,-6.30928 2.39844,-6.86524 0,-0.48646 -0.16707,-0.95025 -0.5,-1.39257 -0.46609,-0.67485 -0.76526,-1.09478 -0.89844,-1.25782 z m -4.89453,15.22266 -2.49609,3.14648 -1.59961,0.54493 0.79883,-1.31641 0.40039,-0.13477 1.29883,-1.38281 1.59765,-0.85742 z m -33.85937,3.32031 c -1.33171,1.07996 -2.76346,2.12561 -4.29492,3.13477 l -1.49805,2.49219 0.40039,0.69726 -0.29883,0.93555 0.29883,2.71289 -0.89844,3.43359 -1.59765,-4.875 0.69921,-1.59375 c -0.46609,-0.95282 -0.80024,-1.70834 -1,-2.26562 -3.79536,2.96322 -6.65887,5.15659 -8.58984,6.58008 0.13317,18.85698 1.63098,41.38307 4.49414,67.57812 0.59927,-0.82998 1.23259,-1.56672 1.89844,-2.21094 l 1.39844,0.77344 c 0.59926,-1.52491 1.16458,-2.69079 1.69726,-3.49805 l -1.09765,-3.16992 1.69726,-4.12304 1.09961,1.60546 -0.40039,1.07422 0.30078,1.87891 c 1.13195,1.14254 1.99644,1.95881 2.5957,2.44922 l 2.69727,-2.17188 c -0.0666,-0.53322 -0.20064,-1.98157 -0.40039,-4.3457 -0.19976,-1.73867 -0.29883,-3.19945 -0.29883,-4.38086 0,-0.48645 0.0991,-1.1459 0.29883,-1.97852 0.19975,-0.90211 0.30078,-1.49155 0.30078,-1.76953 0.13317,-1.01837 0.19922,-2.88152 0.19922,-5.59179 0,-15.7057 0.96551,-32.57482 2.89648,-50.60743 l -0.29882,0.20508 c -0.13316,0.0455 -0.23419,-0.1292 -0.30079,-0.52344 0,-0.48645 -0.13209,-0.61465 -0.39843,-0.38476 0,-0.55595 -0.30113,-0.86991 -0.90039,-0.94336 -0.5327,-0.0962 -0.76582,-0.46902 -0.69922,-1.11719 z m 29.26562,2.73047 -1.79883,2.28125 -1.09765,0.375 0.49805,-0.90039 0.30078,-0.10156 0.99804,-1.07031 1.09961,-0.58399 z m 130.73828,3.01563 1,0.80664 -0.19921,0.79687 0.59765,1.77735 -0.39844,2.63671 -1.79882,-3.24218 0.79882,-2.77539 z m -170.78906,7.00586 0.69922,1.01171 -0.30078,0.62305 0.30078,1.77344 -0.69922,2.42773 -1.09961,-3.27343 1.09961,-2.5625 z m 113.66797,5.74609 c -0.002,0.0554 -0.004,0.11626 -0.006,0.17187 l -0.20117,0.0762 0.20703,-0.24805 z m -110.67188,2.29883 0.39844,0.59375 -0.0996,0.34765 0.0996,1.11133 -0.39844,1.38867 -0.5996,-1.98632 0.5996,-1.45508 z m 110.36329,0.27734 -0.69727,1.17578 -0.5,0.16992 -1.29883,1.17383 -1.79687,0.7168 2.39648,-2.90234 1.89649,-0.33399 z m -71.81055,33.16016 -1.29883,2.63281 -1.19922,0.82617 0.30078,-0.93555 c 0.99878,-1.03582 1.73117,-1.87789 2.19727,-2.52343 z m -35.35742,4.98047 0.69922,0.9082 -0.29883,0.72656 0.29883,1.77344 -0.69922,2.32422 -0.99805,-3.30664 0.99805,-2.42578 z m 32.46094,1.42968 -1.99805,2.76563 -1.39844,0.68555 0.5,-1.10743 0.39844,-0.24023 1.09961,-1.20898 1.39844,-0.89454 z"
       style="font-style:normal;font-variant:normal;font-weight:normal;font-stretch:normal;font-size:medium;line-height:125%;font-family:'Feast of Flesh BB';-inkscape-font-specification:'Feast of Flesh BB';text-align:center;letter-spacing:0px;word-spacing:0px;text-anchor:middle;fill:#000000;fill-opacity:1;stroke:#000000;stroke-width:12.07900047;stroke-linecap:butt;stroke-linejoin:round;stroke-miterlimit:4;stroke-dasharray:none;stroke-opacity:1"
       inkscape:export-xdpi="155.17999"
       inkscape:export-ydpi="155.17999" />
    <path
       style="color:#000000;display:inline;overflow:visible;visibility:visible;fill:url(#linearGradient4168);fill-opacity:1;fill-rule:evenodd;stroke:#000000;stroke-width:1.07542777;stroke-linecap:butt;stroke-linejoin:miter;stroke-miterlimit:4;stroke-dasharray:none;stroke-dashoffset:0;stroke-opacity:1;marker:none;marker-start:none;marker-mid:none;marker-end:none;enable-background:accumulate"
       d="m -64.96627,250.14498 2,106.63886 -421.35316,148.79561 -2,-106.63886 z"
       id="rect4158"
       inkscape:connector-curvature="0"
       sodipodi:nodetypes="ccccc"
       clip-path="url(#clipPath4299)"
       transform="translate(656,110)"
       inkscape:export-xdpi="155.17999"
       inkscape:export-ydpi="155.17999" />
    <rect
       style="color:#000000;display:inline;overflow:visible;visibility:visible;fill:#ffffff;fill-opacity:1;fill-rule:evenodd;stroke:#000000;stroke-width:1;stroke-linecap:butt;stroke-linejoin:miter;stroke-miterlimit:4;stroke-dasharray:none;stroke-dashoffset:0;stroke-opacity:1;marker:none;marker-start:none;marker-mid:none;marker-end:none;enable-background:accumulate"
       id="rect4160"
       width="0"
       height="0"
       x="656"
       y="110"
       inkscape:export-xdpi="155.17999"
       inkscape:export-ydpi="155.17999" />
    <path
       sodipodi:nodetypes="ccccc"
       inkscape:connector-curvature="0"
       id="path4295"
       d="m -64.96627,358.14498 2,106.63886 -421.35316,148.79561 -2,-106.63886 z"
       style="color:#000000;display:inline;overflow:visible;visibility:visible;fill:url(#linearGradient4297);fill-opacity:1;fill-rule:evenodd;stroke:#000000;stroke-width:1.07542777;stroke-linecap:butt;stroke-linejoin:miter;stroke-miterlimit:4;stroke-dasharray:none;stroke-dashoffset:0;stroke-opacity:1;marker:none;marker-start:none;marker-mid:none;marker-end:none;enable-background:accumulate"
       clip-path="url(#clipPath4303)"
       transform="translate(656,110)"
       inkscape:export-xdpi="155.17999"
       inkscape:export-ydpi="155.17999" />
  </g>
</svg>
